<!--
	Copyright (c) Microsoft Corporation. All rights reserved.
	Licensed under the MIT license.
 -->

<svg width="36" height="10" viewBox="0 0 36 10" fill="none" xmlns="http://www.w3.org/2000/svg">
  <path d="M6.89648 12.6484C6.26367 12.9766 5.47656 13.1406 4.53516 13.1406C3.31641 13.1406 2.33984 12.7559 1.60547 11.9863C0.871094 11.2168 0.503906 10.207 0.503906 8.95703C0.503906 7.61328 0.916016 6.52734 1.74023 5.69922C2.56836 4.87109 3.61328 4.45703 4.875 4.45703C5.6875 4.45703 6.36133 4.57227 6.89648 4.80273V6.18555C6.33008 5.84961 5.70508 5.68164 5.02148 5.68164C4.11133 5.68164 3.37305 5.97266 2.80664 6.55469C2.24414 7.13672 1.96289 7.91406 1.96289 8.88672C1.96289 9.8125 2.22656 10.5508 2.75391 11.1016C3.28125 11.6484 3.97461 11.9219 4.83398 11.9219C5.62695 11.9219 6.31445 11.7344 6.89648 11.3594V12.6484ZM12.9434 13H11.625V12.0625H11.6016C11.1875 12.7812 10.5801 13.1406 9.7793 13.1406C9.18945 13.1406 8.72656 12.9805 8.39062 12.6602C8.05859 12.3398 7.89258 11.916 7.89258 11.3887C7.89258 10.2559 8.54492 9.5957 9.84961 9.4082L11.6309 9.15625C11.6309 8.30078 11.2246 7.87305 10.4121 7.87305C9.69727 7.87305 9.05273 8.11914 8.47852 8.61133V7.42188C9.11133 7.04688 9.8418 6.85938 10.6699 6.85938C12.1855 6.85938 12.9434 7.60547 12.9434 9.09766V13ZM11.6309 10.0527L10.3711 10.2285C9.98047 10.2793 9.68555 10.375 9.48633 10.5156C9.29102 10.6523 9.19336 10.8945 9.19336 11.2422C9.19336 11.4961 9.2832 11.7051 9.46289 11.8691C9.64648 12.0293 9.89062 12.1094 10.1953 12.1094C10.6094 12.1094 10.9512 11.9648 11.2207 11.6758C11.4941 11.3828 11.6309 11.0156 11.6309 10.5742V10.0527ZM19.9512 13H18.5918V9.61914C18.5918 8.49805 18.1953 7.9375 17.4023 7.9375C16.9883 7.9375 16.6465 8.09375 16.377 8.40625C16.1074 8.71484 15.9727 9.10547 15.9727 9.57812V13H14.6074V7H15.9727V7.99609H15.9961C16.4453 7.23828 17.0938 6.85938 17.9414 6.85938C18.5938 6.85938 19.0918 7.07227 19.4355 7.49805C19.7793 7.91992 19.9512 8.53125 19.9512 9.33203V13ZM25.9102 12.7246C25.4297 13.002 24.8613 13.1406 24.2051 13.1406C23.3145 13.1406 22.5957 12.8633 22.0488 12.3086C21.502 11.75 21.2285 11.0273 21.2285 10.1406C21.2285 9.15234 21.5215 8.35938 22.1074 7.76172C22.6973 7.16016 23.4844 6.85938 24.4688 6.85938C25.0156 6.85938 25.498 6.95508 25.916 7.14648V8.41211C25.498 8.09961 25.0527 7.94336 24.5801 7.94336C24.0059 7.94336 23.5352 8.13867 23.168 8.5293C22.8008 8.91602 22.6172 9.42383 22.6172 10.0527C22.6172 10.6738 22.7891 11.1641 23.1328 11.5234C23.4805 11.8828 23.9453 12.0625 24.5273 12.0625C25.0156 12.0625 25.4766 11.8887 25.9102 11.541V12.7246ZM32.3438 10.3691H28.2539C28.2695 10.9238 28.4395 11.3516 28.7637 11.6523C29.0918 11.9531 29.541 12.1035 30.1113 12.1035C30.752 12.1035 31.3398 11.9121 31.875 11.5293V12.625C31.3281 12.9688 30.6055 13.1406 29.707 13.1406C28.8242 13.1406 28.1309 12.8691 27.627 12.3262C27.127 11.7793 26.877 11.0117 26.877 10.0234C26.877 9.08984 27.1523 8.33008 27.7031 7.74414C28.2578 7.1543 28.9453 6.85938 29.7656 6.85938C30.5859 6.85938 31.2207 7.12305 31.6699 7.65039C32.1191 8.17773 32.3438 8.91016 32.3438 9.84766V10.3691ZM31.0312 9.4082C31.0273 8.91992 30.9121 8.54102 30.6855 8.27148C30.459 7.99805 30.1465 7.86133 29.748 7.86133C29.3574 7.86133 29.0254 8.00391 28.752 8.28906C28.4824 8.57422 28.3164 8.94727 28.2539 9.4082H31.0312ZM35.0039 13H33.6387V4.11719H35.0039V13Z" transform="translate(0 -4)" fill="#315FA2"/>
</svg>
