<!--
	Copyright (c) Microsoft Corporation. All rights reserved.
	Licensed under the MIT license.
 -->

<svg width="81" height="55" viewBox="0 0 81 55" fill="none" xmlns="http://www.w3.org/2000/svg">
  <rect x="0.5" y="0.5" width="80" height="54" stroke="#666666"/>
  <path d="M15 2V15H0V2H2V1H5C5.45833 1 5.89844 1.07031 6.32031 1.21094C6.7474 1.35156 7.14062 1.5625 7.5 1.84375C7.85938 1.5625 8.25 1.35156 8.67188 1.21094C9.09896 1.07031 9.54167 1 10 1H13V2H15ZM10 2C9.63542 2 9.28125 2.0625 8.9375 2.1875C8.59375 2.30729 8.28125 2.48438 8 2.71875V12.5156C8.30729 12.3438 8.63021 12.2161 8.96875 12.1328C9.30729 12.0443 9.65104 12 10 12H12V2H10ZM3 12H5C5.34896 12 5.69271 12.0443 6.03125 12.1328C6.36979 12.2161 6.69271 12.3438 7 12.5156V2.71875C6.71875 2.48438 6.40625 2.30729 6.0625 2.1875C5.71875 2.0625 5.36458 2 5 2H3V12ZM1 14H7.29688C7.13021 13.8385 6.96094 13.6979 6.78906 13.5781C6.61719 13.4531 6.4375 13.349 6.25 13.2656C6.06771 13.1771 5.8724 13.112 5.66406 13.0703C5.46094 13.0234 5.23958 13 5 13H2V3H1V14ZM14 3H13V13H10C9.76042 13 9.53646 13.0234 9.32812 13.0703C9.125 13.112 8.92969 13.1771 8.74219 13.2656C8.5599 13.349 8.38281 13.4531 8.21094 13.5781C8.03906 13.6979 7.86979 13.8385 7.70312 14H14V3Z" transform="translate(33 12)" fill="white"/>
  <path d="M0.708984 12.6602V11.5C0.841797 11.6172 1 11.7227 1.18359 11.8164C1.37109 11.9102 1.56641 11.9902 1.76953 12.0566C1.97656 12.1191 2.18359 12.168 2.39062 12.2031C2.59766 12.2383 2.78906 12.2559 2.96484 12.2559C3.57031 12.2559 4.02148 12.1445 4.31836 11.9219C4.61914 11.6953 4.76953 11.3711 4.76953 10.9492C4.76953 10.7227 4.71875 10.5254 4.61719 10.3574C4.51953 10.1895 4.38281 10.0371 4.20703 9.90039C4.03125 9.75977 3.82227 9.62695 3.58008 9.50195C3.3418 9.37305 3.08398 9.23828 2.80664 9.09766C2.51367 8.94922 2.24023 8.79883 1.98633 8.64648C1.73242 8.49414 1.51172 8.32617 1.32422 8.14258C1.13672 7.95898 0.988281 7.75195 0.878906 7.52148C0.773438 7.28711 0.720703 7.01367 0.720703 6.70117C0.720703 6.31836 0.804688 5.98633 0.972656 5.70508C1.14062 5.41992 1.36133 5.18555 1.63477 5.00195C1.9082 4.81836 2.21875 4.68164 2.56641 4.5918C2.91797 4.50195 3.27539 4.45703 3.63867 4.45703C4.4668 4.45703 5.07031 4.55664 5.44922 4.75586V5.86328C4.95312 5.51953 4.31641 5.34766 3.53906 5.34766C3.32422 5.34766 3.10938 5.37109 2.89453 5.41797C2.67969 5.46094 2.48828 5.5332 2.32031 5.63477C2.15234 5.73633 2.01562 5.86719 1.91016 6.02734C1.80469 6.1875 1.75195 6.38281 1.75195 6.61328C1.75195 6.82812 1.79102 7.01367 1.86914 7.16992C1.95117 7.32617 2.07031 7.46875 2.22656 7.59766C2.38281 7.72656 2.57227 7.85156 2.79492 7.97266C3.02148 8.09375 3.28125 8.22656 3.57422 8.37109C3.875 8.51953 4.16016 8.67578 4.42969 8.83984C4.69922 9.00391 4.93555 9.18555 5.13867 9.38477C5.3418 9.58398 5.50195 9.80469 5.61914 10.0469C5.74023 10.2891 5.80078 10.5664 5.80078 10.8789C5.80078 11.293 5.71875 11.6445 5.55469 11.9336C5.39453 12.2188 5.17578 12.4512 4.89844 12.6309C4.625 12.8105 4.30859 12.9395 3.94922 13.0176C3.58984 13.0996 3.21094 13.1406 2.8125 13.1406C2.67969 13.1406 2.51562 13.1289 2.32031 13.1055C2.125 13.0859 1.92578 13.0547 1.72266 13.0117C1.51953 12.9727 1.32617 12.9238 1.14258 12.8652C0.962891 12.8027 0.818359 12.7344 0.708984 12.6602ZM12.1699 10.2402H7.93359C7.94922 10.9082 8.12891 11.4238 8.47266 11.7871C8.81641 12.1504 9.28906 12.332 9.89062 12.332C10.5664 12.332 11.1875 12.1094 11.7539 11.6641V12.5664C11.2266 12.9492 10.5293 13.1406 9.66211 13.1406C8.81445 13.1406 8.14844 12.8691 7.66406 12.3262C7.17969 11.7793 6.9375 11.0117 6.9375 10.0234C6.9375 9.08984 7.20117 8.33008 7.72852 7.74414C8.25977 7.1543 8.91797 6.85938 9.70312 6.85938C10.4883 6.85938 11.0957 7.11328 11.5254 7.62109C11.9551 8.12891 12.1699 8.83398 12.1699 9.73633V10.2402ZM11.1855 9.42578C11.1816 8.87109 11.0469 8.43945 10.7812 8.13086C10.5195 7.82227 10.1543 7.66797 9.68555 7.66797C9.23242 7.66797 8.84766 7.83008 8.53125 8.1543C8.21484 8.47852 8.01953 8.90234 7.94531 9.42578H11.1855ZM17.9238 13H16.9629V12.0625H16.9395C16.5215 12.7812 15.9062 13.1406 15.0938 13.1406C14.4961 13.1406 14.0273 12.9824 13.6875 12.666C13.3516 12.3496 13.1836 11.9297 13.1836 11.4062C13.1836 10.2852 13.8438 9.63281 15.1641 9.44922L16.9629 9.19727C16.9629 8.17773 16.5508 7.66797 15.7266 7.66797C15.0039 7.66797 14.3516 7.91406 13.7695 8.40625V7.42188C14.3594 7.04688 15.0391 6.85938 15.8086 6.85938C17.2188 6.85938 17.9238 7.60547 17.9238 9.09766V13ZM16.9629 9.96484L15.5156 10.1641C15.0703 10.2266 14.7344 10.3379 14.5078 10.498C14.2812 10.6543 14.168 10.9336 14.168 11.3359C14.168 11.6289 14.2715 11.8691 14.4785 12.0566C14.6895 12.2402 14.9688 12.332 15.3164 12.332C15.793 12.332 16.1855 12.166 16.4941 11.834C16.8066 11.498 16.9629 11.0742 16.9629 10.5625V9.96484ZM22.8633 7.97266C22.6953 7.84375 22.4531 7.7793 22.1367 7.7793C21.7266 7.7793 21.3828 7.97266 21.1055 8.35938C20.832 8.74609 20.6953 9.27344 20.6953 9.94141V13H19.7344V7H20.6953V8.23633H20.7188C20.8555 7.81445 21.0645 7.48633 21.3457 7.25195C21.627 7.01367 21.9414 6.89453 22.2891 6.89453C22.5391 6.89453 22.7305 6.92188 22.8633 6.97656V7.97266ZM27.9961 12.7246C27.5352 13.002 26.9883 13.1406 26.3555 13.1406C25.5 13.1406 24.8086 12.8633 24.2812 12.3086C23.7578 11.75 23.4961 11.0273 23.4961 10.1406C23.4961 9.15234 23.7793 8.35938 24.3457 7.76172C24.9121 7.16016 25.668 6.85938 26.6133 6.85938C27.1406 6.85938 27.6055 6.95703 28.0078 7.15234V8.13672C27.5625 7.82422 27.0859 7.66797 26.5781 7.66797C25.9648 7.66797 25.4609 7.88867 25.0664 8.33008C24.6758 8.76758 24.4805 9.34375 24.4805 10.0586C24.4805 10.7617 24.6641 11.3164 25.0312 11.7227C25.4023 12.1289 25.8984 12.332 26.5195 12.332C27.043 12.332 27.5352 12.1582 27.9961 11.8105V12.7246ZM34.4297 13H33.4688V9.54297C33.4688 8.29297 33.0039 7.66797 32.0742 7.66797C31.6055 7.66797 31.2109 7.84961 30.8906 8.21289C30.5703 8.57227 30.4102 9.03516 30.4102 9.60156V13H29.4492V4.11719H30.4102V7.99609H30.4336C30.8945 7.23828 31.5508 6.85938 32.4023 6.85938C33.7539 6.85938 34.4297 7.67383 34.4297 9.30273V13ZM45.5156 13H44.1445L40.8984 9.15625C40.7773 9.01172 40.7031 8.91406 40.6758 8.86328H40.6523V13H39.668V4.59766H40.6523V8.54688H40.6758C40.7305 8.46094 40.8047 8.36523 40.8984 8.25977L44.0391 4.59766H45.2637L41.6602 8.62891L45.5156 13ZM46.6289 13V4.59766H49.0195C49.7461 4.59766 50.3223 4.77539 50.748 5.13086C51.1738 5.48633 51.3867 5.94922 51.3867 6.51953C51.3867 6.99609 51.2578 7.41016 51 7.76172C50.7422 8.11328 50.3867 8.36328 49.9336 8.51172V8.53516C50.5 8.60156 50.9531 8.81641 51.293 9.17969C51.6328 9.53906 51.8027 10.0078 51.8027 10.5859C51.8027 11.3047 51.5449 11.8867 51.0293 12.332C50.5137 12.7773 49.8633 13 49.0781 13H46.6289ZM47.6133 5.48828V8.20117H48.6211C49.1602 8.20117 49.584 8.07227 49.8926 7.81445C50.2012 7.55273 50.3555 7.18555 50.3555 6.71289C50.3555 5.89648 49.8184 5.48828 48.7441 5.48828H47.6133ZM47.6133 9.08594V12.1094H48.9492C49.5273 12.1094 49.9746 11.9727 50.291 11.6992C50.6113 11.4258 50.7715 11.0508 50.7715 10.5742C50.7715 9.58203 50.0957 9.08594 48.7441 9.08594H47.6133Z" transform="translate(14 35)" fill="#D8D8D8"/>
</svg>
