<!--
	Copyright (c) Microsoft Corporation. All rights reserved.
	Licensed under the MIT license.
 -->

<svg width="93" height="28" viewBox="0 0 93 28" fill="none" xmlns="http://www.w3.org/2000/svg">
	<rect width="93" height="28" fill="#315FA2"/>
	<path d="M7.93945 13H6.41016L5.6543 10.8613H2.34961L1.62305 13H0.0996094L3.24609 4.59766H4.81641L7.93945 13ZM5.28516 9.72461L4.11914 6.37305C4.08398 6.26367 4.04688 6.08789 4.00781 5.8457H3.98438C3.94922 6.06836 3.91016 6.24414 3.86719 6.37305L2.71289 9.72461H5.28516ZM14.4023 13H13.043V11.9805H13.0195C12.582 12.7539 11.9082 13.1406 10.998 13.1406C10.2598 13.1406 9.66797 12.873 9.22266 12.3379C8.78125 11.7988 8.56055 11.0664 8.56055 10.1406C8.56055 9.14844 8.80469 8.35352 9.29297 7.75586C9.78516 7.1582 10.4395 6.85938 11.2559 6.85938C12.0645 6.85938 12.6523 7.18359 13.0195 7.83203H13.043V4.11719H14.4023V13ZM13.0605 10.2578V9.47266C13.0605 9.04688 12.9219 8.68555 12.6445 8.38867C12.3672 8.0918 12.0137 7.94336 11.584 7.94336C11.0762 7.94336 10.6758 8.13281 10.3828 8.51172C10.0938 8.89062 9.94922 9.41602 9.94922 10.0879C9.94922 10.6973 10.0879 11.1797 10.3652 11.5352C10.6465 11.8867 11.0234 12.0625 11.4961 12.0625C11.9609 12.0625 12.3379 11.8926 12.627 11.5527C12.916 11.209 13.0605 10.7773 13.0605 10.2578ZM21.6328 13H20.2734V11.9805H20.25C19.8125 12.7539 19.1387 13.1406 18.2285 13.1406C17.4902 13.1406 16.8984 12.873 16.4531 12.3379C16.0117 11.7988 15.791 11.0664 15.791 10.1406C15.791 9.14844 16.0352 8.35352 16.5234 7.75586C17.0156 7.1582 17.6699 6.85938 18.4863 6.85938C19.2949 6.85938 19.8828 7.18359 20.25 7.83203H20.2734V4.11719H21.6328V13ZM20.291 10.2578V9.47266C20.291 9.04688 20.1523 8.68555 19.875 8.38867C19.5977 8.0918 19.2441 7.94336 18.8145 7.94336C18.3066 7.94336 17.9062 8.13281 17.6133 8.51172C17.3242 8.89062 17.1797 9.41602 17.1797 10.0879C17.1797 10.6973 17.3184 11.1797 17.5957 11.5352C17.877 11.8867 18.2539 12.0625 18.7266 12.0625C19.1914 12.0625 19.5684 11.8926 19.8574 11.5527C20.1465 11.209 20.291 10.7773 20.291 10.2578ZM33.9902 13H32.4668L28.4531 6.82422C28.3516 6.66797 28.2676 6.50586 28.2012 6.33789H28.166C28.1973 6.51758 28.2129 6.90234 28.2129 7.49219V13H26.8652V4.59766H28.4883L32.3672 10.627C32.5312 10.877 32.6367 11.0488 32.6836 11.1426H32.707C32.668 10.9199 32.6484 10.543 32.6484 10.0117V4.59766H33.9902V13ZM38.584 13.1406C37.6582 13.1406 36.918 12.8613 36.3633 12.3027C35.8125 11.7402 35.5371 10.9961 35.5371 10.0703C35.5371 9.0625 35.8242 8.27539 36.3984 7.70898C36.9766 7.14258 37.7539 6.85938 38.7305 6.85938C39.668 6.85938 40.3984 7.13477 40.9219 7.68555C41.4453 8.23633 41.707 9 41.707 9.97656C41.707 10.9336 41.4238 11.7012 40.8574 12.2793C40.2949 12.8535 39.5371 13.1406 38.584 13.1406ZM38.6484 7.94336C38.1172 7.94336 37.6973 8.12891 37.3887 8.5C37.0801 8.87109 36.9258 9.38281 36.9258 10.0352C36.9258 10.6641 37.082 11.1602 37.3945 11.5234C37.707 11.8828 38.125 12.0625 38.6484 12.0625C39.1836 12.0625 39.5938 11.8848 39.8789 11.5293C40.168 11.1738 40.3125 10.668 40.3125 10.0117C40.3125 9.35156 40.168 8.8418 39.8789 8.48242C39.5938 8.12305 39.1836 7.94336 38.6484 7.94336ZM46.2598 12.9355C45.9941 13.0684 45.6445 13.1348 45.2109 13.1348C44.0469 13.1348 43.4648 12.5762 43.4648 11.459V8.06641H42.4629V7H43.4648V5.61133L44.8242 5.22461V7H46.2598V8.06641H44.8242V11.0664C44.8242 11.4219 44.8887 11.6758 45.0176 11.8281C45.1465 11.9805 45.3613 12.0566 45.6621 12.0566C45.8926 12.0566 46.0918 11.9902 46.2598 11.8574V12.9355ZM52.4414 10.3691H48.3516C48.3672 10.9238 48.5371 11.3516 48.8613 11.6523C49.1895 11.9531 49.6387 12.1035 50.209 12.1035C50.8496 12.1035 51.4375 11.9121 51.9727 11.5293V12.625C51.4258 12.9688 50.7031 13.1406 49.8047 13.1406C48.9219 13.1406 48.2285 12.8691 47.7246 12.3262C47.2246 11.7793 46.9746 11.0117 46.9746 10.0234C46.9746 9.08984 47.25 8.33008 47.8008 7.74414C48.3555 7.1543 49.043 6.85938 49.8633 6.85938C50.6836 6.85938 51.3184 7.12305 51.7676 7.65039C52.2168 8.17773 52.4414 8.91016 52.4414 9.84766V10.3691ZM51.1289 9.4082C51.125 8.91992 51.0098 8.54102 50.7832 8.27148C50.5566 7.99805 50.2441 7.86133 49.8457 7.86133C49.4551 7.86133 49.123 8.00391 48.8496 8.28906C48.5801 8.57422 48.4141 8.94727 48.3516 9.4082H51.1289ZM53.3613 12.8125V11.5527C53.8691 11.9395 54.4297 12.1328 55.043 12.1328C55.8633 12.1328 56.2734 11.8906 56.2734 11.4062C56.2734 11.2695 56.2383 11.1543 56.168 11.0605C56.0977 10.9629 56.002 10.877 55.8809 10.8027C55.7637 10.7285 55.623 10.6621 55.459 10.6035C55.2988 10.5449 55.1191 10.4785 54.9199 10.4043C54.6738 10.3066 54.4512 10.2031 54.252 10.0938C54.0566 9.98438 53.8926 9.86133 53.7598 9.72461C53.6309 9.58398 53.5332 9.42578 53.4668 9.25C53.4004 9.07422 53.3672 8.86914 53.3672 8.63477C53.3672 8.3457 53.4355 8.0918 53.5723 7.87305C53.709 7.65039 53.8926 7.46484 54.123 7.31641C54.3535 7.16406 54.6152 7.05078 54.9082 6.97656C55.2012 6.89844 55.5039 6.85938 55.8164 6.85938C56.3711 6.85938 56.8672 6.94336 57.3047 7.11133V8.30078C56.8828 8.01172 56.3984 7.86719 55.8516 7.86719C55.6797 7.86719 55.5234 7.88477 55.3828 7.91992C55.2461 7.95508 55.1289 8.00391 55.0312 8.06641C54.9336 8.12891 54.8574 8.20508 54.8027 8.29492C54.748 8.38086 54.7207 8.47656 54.7207 8.58203C54.7207 8.71094 54.748 8.82031 54.8027 8.91016C54.8574 9 54.9375 9.08008 55.043 9.15039C55.1523 9.2168 55.2812 9.2793 55.4297 9.33789C55.582 9.39258 55.7559 9.45312 55.9512 9.51953C56.209 9.625 56.4395 9.73242 56.6426 9.8418C56.8496 9.95117 57.0254 10.0762 57.1699 10.2168C57.3145 10.3535 57.4258 10.5137 57.5039 10.6973C57.582 10.877 57.6211 11.0918 57.6211 11.3418C57.6211 11.6465 57.5508 11.9121 57.4102 12.1387C57.2695 12.3652 57.082 12.5527 56.8477 12.7012C56.6133 12.8496 56.3418 12.959 56.0332 13.0293C55.7285 13.1035 55.4062 13.1406 55.0664 13.1406C54.4102 13.1406 53.8418 13.0312 53.3613 12.8125Z" transform="translate(12 6)" fill="white"/>
</svg>