<!--
	Copyright (c) Microsoft Corporation. All rights reserved.
	Licensed under the MIT license.
 -->

<svg width="118" height="35" viewBox="0 0 118 35" fill="none" xmlns="http://www.w3.org/2000/svg">
  <path fill-rule="evenodd" clip-rule="evenodd" d="M0 0H118V35H0V0Z" fill="#01B54D"/>
  <path d="M7.60547 13H6.51562L5.625 10.6445H2.0625L1.22461 13H0.128906L3.35156 4.59766H4.37109L7.60547 13ZM5.30273 9.75977L3.98438 6.17969C3.94141 6.0625 3.89844 5.875 3.85547 5.61719H3.83203C3.79297 5.85547 3.74805 6.04297 3.69727 6.17969L2.39062 9.75977H5.30273ZM13.6992 13H12.7383V9.57812C12.7383 8.30469 12.2734 7.66797 11.3438 7.66797C10.8633 7.66797 10.4648 7.84961 10.1484 8.21289C9.83594 8.57227 9.67969 9.02734 9.67969 9.57812V13H8.71875V7H9.67969V7.99609H9.70312C10.1562 7.23828 10.8125 6.85938 11.6719 6.85938C12.3281 6.85938 12.8301 7.07227 13.1777 7.49805C13.5254 7.91992 13.6992 8.53125 13.6992 9.33203V13ZM15.1523 12.7832V11.752C15.6758 12.1387 16.252 12.332 16.8809 12.332C17.7246 12.332 18.1465 12.0508 18.1465 11.4883C18.1465 11.3281 18.1094 11.1934 18.0352 11.084C17.9648 10.9707 17.8672 10.8711 17.7422 10.7852C17.6211 10.6992 17.4766 10.623 17.3086 10.5566C17.1445 10.4863 16.9668 10.4141 16.7754 10.3398C16.5098 10.2344 16.2754 10.1289 16.0723 10.0234C15.873 9.91406 15.7051 9.79297 15.5684 9.66016C15.4355 9.52344 15.334 9.36914 15.2637 9.19727C15.1973 9.02539 15.1641 8.82422 15.1641 8.59375C15.1641 8.3125 15.2285 8.06445 15.3574 7.84961C15.4863 7.63086 15.6582 7.44922 15.873 7.30469C16.0879 7.15625 16.332 7.04492 16.6055 6.9707C16.8828 6.89648 17.168 6.85938 17.4609 6.85938C17.9805 6.85938 18.4453 6.94922 18.8555 7.12891V8.10156C18.4141 7.8125 17.9062 7.66797 17.332 7.66797C17.1523 7.66797 16.9902 7.68945 16.8457 7.73242C16.7012 7.77148 16.5762 7.82812 16.4707 7.90234C16.3691 7.97656 16.2891 8.06641 16.2305 8.17188C16.1758 8.27344 16.1484 8.38672 16.1484 8.51172C16.1484 8.66797 16.1758 8.79883 16.2305 8.9043C16.2891 9.00977 16.373 9.10352 16.4824 9.18555C16.5918 9.26758 16.7246 9.3418 16.8809 9.4082C17.0371 9.47461 17.2148 9.54688 17.4141 9.625C17.6797 9.72656 17.918 9.83203 18.1289 9.94141C18.3398 10.0469 18.5195 10.168 18.668 10.3047C18.8164 10.4375 18.9297 10.5918 19.0078 10.7676C19.0898 10.9434 19.1309 11.1523 19.1309 11.3945C19.1309 11.6914 19.0645 11.9492 18.9316 12.168C18.8027 12.3867 18.6289 12.5684 18.4102 12.7129C18.1914 12.8574 17.9395 12.9648 17.6543 13.0352C17.3691 13.1055 17.0703 13.1406 16.7578 13.1406C16.1406 13.1406 15.6055 13.0215 15.1523 12.7832ZM28.1719 7L26.373 13H25.377L24.1406 8.70508C24.0938 8.54102 24.0625 8.35547 24.0469 8.14844H24.0234C24.0117 8.28906 23.9707 8.4707 23.9004 8.69336L22.5586 13H21.5977L19.7812 7H20.7891L22.0312 11.5117C22.0703 11.6484 22.0977 11.8281 22.1133 12.0508H22.1602C22.1719 11.8789 22.207 11.6953 22.2656 11.5L23.6484 7H24.5273L25.7695 11.5234C25.8086 11.668 25.8379 11.8477 25.8574 12.0625H25.9043C25.9121 11.9102 25.9453 11.7305 26.0039 11.5234L27.2227 7H28.1719ZM34.1074 10.2402H29.8711C29.8867 10.9082 30.0664 11.4238 30.4102 11.7871C30.7539 12.1504 31.2266 12.332 31.8281 12.332C32.5039 12.332 33.125 12.1094 33.6914 11.6641V12.5664C33.1641 12.9492 32.4668 13.1406 31.5996 13.1406C30.752 13.1406 30.0859 12.8691 29.6016 12.3262C29.1172 11.7793 28.875 11.0117 28.875 10.0234C28.875 9.08984 29.1387 8.33008 29.666 7.74414C30.1973 7.1543 30.8555 6.85938 31.6406 6.85938C32.4258 6.85938 33.0332 7.11328 33.4629 7.62109C33.8926 8.12891 34.1074 8.83398 34.1074 9.73633V10.2402ZM33.123 9.42578C33.1191 8.87109 32.9844 8.43945 32.7188 8.13086C32.457 7.82227 32.0918 7.66797 31.623 7.66797C31.1699 7.66797 30.7852 7.83008 30.4688 8.1543C30.1523 8.47852 29.957 8.90234 29.8828 9.42578H33.123ZM38.6953 7.97266C38.5273 7.84375 38.2852 7.7793 37.9688 7.7793C37.5586 7.7793 37.2148 7.97266 36.9375 8.35938C36.6641 8.74609 36.5273 9.27344 36.5273 9.94141V13H35.5664V7H36.5273V8.23633H36.5508C36.6875 7.81445 36.8965 7.48633 37.1777 7.25195C37.459 7.01367 37.7734 6.89453 38.1211 6.89453C38.3711 6.89453 38.5625 6.92188 38.6953 6.97656V7.97266Z" transform="translate(50 10)" fill="white"/>
  <path d="M10.9854 8.29199C11.1859 8.29199 11.3773 8.33073 11.5596 8.4082C11.7464 8.48112 11.9105 8.58822 12.0518 8.72949L13.5557 10.2334C13.6969 10.3747 13.804 10.5387 13.877 10.7256C13.9544 10.9079 13.9932 11.0993 13.9932 11.2998C13.9932 11.5003 13.9544 11.694 13.877 11.8809C13.804 12.0632 13.6969 12.2249 13.5557 12.3662L13.46 12.4619C13.2139 12.708 12.9883 12.9268 12.7832 13.1182C12.5781 13.3096 12.3639 13.4714 12.1406 13.6035C11.9173 13.7311 11.6689 13.8291 11.3955 13.8975C11.1221 13.9658 10.7962 14 10.418 14C9.84831 14 9.2627 13.9111 8.66113 13.7334C8.05957 13.5557 7.46029 13.3096 6.86328 12.9951C6.27083 12.6807 5.6875 12.307 5.11328 11.874C4.54362 11.4411 4.00358 10.9694 3.49316 10.459C2.9873 9.94401 2.52018 9.40169 2.0918 8.83203C1.66341 8.25781 1.29427 7.67448 0.984375 7.08203C0.674479 6.48503 0.432943 5.8903 0.259766 5.29785C0.0865885 4.7054 0 4.13118 0 3.5752C0 3.19694 0.031901 2.87337 0.0957031 2.60449C0.164062 2.33561 0.262044 2.08952 0.389648 1.86621C0.52181 1.6429 0.681315 1.43099 0.868164 1.23047C1.05957 1.02539 1.27832 0.799805 1.52441 0.553711L1.63379 0.444336C1.77507 0.30306 1.93685 0.193685 2.11914 0.116211C2.30143 0.038737 2.49512 0 2.7002 0C2.90072 0 3.09212 0.038737 3.27441 0.116211C3.46126 0.193685 3.62533 0.30306 3.7666 0.444336L5.27051 1.94824C5.41178 2.08952 5.51888 2.25358 5.5918 2.44043C5.66927 2.62272 5.70801 2.81413 5.70801 3.01465C5.70801 3.21517 5.67383 3.39518 5.60547 3.55469C5.53711 3.70964 5.4528 3.85091 5.35254 3.97852C5.25228 4.10612 5.14062 4.22233 5.01758 4.32715C4.89909 4.43197 4.78971 4.53451 4.68945 4.63477C4.58919 4.73503 4.50488 4.83757 4.43652 4.94238C4.36816 5.04264 4.33398 5.15202 4.33398 5.27051C4.33398 5.44368 4.39551 5.5918 4.51855 5.71484L8.28516 9.48145C8.4082 9.60449 8.55632 9.66602 8.72949 9.66602C8.84798 9.66602 8.95736 9.63184 9.05762 9.56348C9.16243 9.49512 9.26497 9.41081 9.36523 9.31055C9.46549 9.21029 9.56803 9.10091 9.67285 8.98242C9.77767 8.85938 9.89388 8.74772 10.0215 8.64746C10.1491 8.5472 10.2904 8.46289 10.4453 8.39453C10.6048 8.32617 10.7848 8.29199 10.9854 8.29199ZM10.418 13.125C10.7461 13.125 11.0195 13.0954 11.2383 13.0361C11.4616 12.9723 11.6621 12.8835 11.8398 12.7695C12.0176 12.651 12.1908 12.5052 12.3594 12.332C12.528 12.1589 12.7217 11.9629 12.9404 11.7441C13.0635 11.6211 13.125 11.473 13.125 11.2998C13.125 11.2178 13.0908 11.1221 13.0225 11.0127C12.9587 10.8988 12.8743 10.7803 12.7695 10.6572C12.6647 10.5342 12.5462 10.4089 12.4141 10.2812C12.2865 10.1491 12.1589 10.026 12.0312 9.91211C11.9082 9.79362 11.792 9.68652 11.6826 9.59082C11.5778 9.49056 11.4958 9.41081 11.4365 9.35156C11.3135 9.22852 11.1631 9.16699 10.9854 9.16699C10.8669 9.16699 10.7575 9.20117 10.6572 9.26953C10.557 9.33789 10.4567 9.4222 10.3564 9.52246C10.2562 9.62272 10.1514 9.73438 10.042 9.85742C9.93717 9.97591 9.82096 10.0853 9.69336 10.1855C9.56576 10.2858 9.4222 10.3701 9.2627 10.4385C9.10775 10.5068 8.93001 10.541 8.72949 10.541C8.52897 10.541 8.33529 10.5046 8.14844 10.4316C7.96615 10.3542 7.80436 10.2448 7.66309 10.1035L3.89648 6.33691C3.75521 6.19564 3.64583 6.03385 3.56836 5.85156C3.49544 5.66471 3.45898 5.47103 3.45898 5.27051C3.45898 5.06999 3.49316 4.89225 3.56152 4.7373C3.62988 4.5778 3.71419 4.43424 3.81445 4.30664C3.91471 4.17904 4.02409 4.06283 4.14258 3.95801C4.26562 3.84863 4.37728 3.74382 4.47754 3.64355C4.5778 3.54329 4.66211 3.44303 4.73047 3.34277C4.79883 3.24251 4.83301 3.13314 4.83301 3.01465C4.83301 2.83691 4.77148 2.68652 4.64844 2.56348C4.58919 2.50423 4.50944 2.4222 4.40918 2.31738C4.31348 2.20801 4.20638 2.0918 4.08789 1.96875C3.97396 1.84115 3.85091 1.71354 3.71875 1.58594C3.59115 1.45378 3.46582 1.33529 3.34277 1.23047C3.21973 1.12565 3.10124 1.04134 2.9873 0.977539C2.87793 0.90918 2.78223 0.875 2.7002 0.875C2.52702 0.875 2.37891 0.936523 2.25586 1.05957C2.03711 1.27832 1.84115 1.47201 1.66797 1.64062C1.49935 1.80924 1.35352 1.98242 1.23047 2.16016C1.11198 2.33789 1.02083 2.53841 0.957031 2.76172C0.897786 2.98047 0.868164 3.25163 0.868164 3.5752C0.868164 4.08561 0.950195 4.61198 1.11426 5.1543C1.28288 5.69661 1.51302 6.23893 1.80469 6.78125C2.10091 7.32357 2.44954 7.85905 2.85059 8.3877C3.25163 8.91178 3.68913 9.40853 4.16309 9.87793C4.63704 10.3473 5.13607 10.7803 5.66016 11.1768C6.1888 11.5732 6.72201 11.9173 7.25977 12.209C7.80208 12.4961 8.33984 12.7217 8.87305 12.8857C9.41081 13.0452 9.92578 13.125 10.418 13.125Z" transform="translate(29 11)" fill="white"/>
</svg>
