<!--
	Copyright (c) Microsoft Corporation. All rights reserved.
	Licensed under the MIT license.
 -->

<svg width="82" height="55" viewBox="0 0 82 55" fill="none" xmlns="http://www.w3.org/2000/svg">
  <rect x="0.5" y="0.5" width="81" height="54" stroke="#666666"/>
  <path d="M15.0781 1.71875C15.2135 1.95312 15.3359 2.17708 15.4453 2.39062C15.5599 2.60417 15.6589 2.82031 15.7422 3.03906C15.8255 3.25781 15.888 3.48698 15.9297 3.72656C15.9766 3.96094 16 4.21875 16 4.5C16 4.91146 15.9453 5.3099 15.8359 5.69531C15.7318 6.07552 15.5807 6.43229 15.3828 6.76562C15.1901 7.09896 14.9557 7.40365 14.6797 7.67969C14.4036 7.95573 14.099 8.19271 13.7656 8.39062C13.4323 8.58333 13.0729 8.73438 12.6875 8.84375C12.3073 8.94792 11.9115 9 11.5 9C11.3802 9 11.2578 8.99479 11.1328 8.98438C11.013 8.97396 10.8932 8.95833 10.7734 8.9375L4.47656 15.2344C4.22656 15.4844 3.9401 15.6745 3.61719 15.8047C3.29948 15.9349 2.96615 16 2.61719 16C2.25781 16 1.91927 15.9323 1.60156 15.7969C1.28385 15.6562 1.00521 15.4688 0.765625 15.2344C0.53125 14.9948 0.34375 14.7161 0.203125 14.3984C0.0677083 14.0807 0 13.7422 0 13.3828C0 13.0339 0.0651042 12.7005 0.195312 12.3828C0.325521 12.0599 0.515625 11.7734 0.765625 11.5234L7.0625 5.22656C7.04167 5.10677 7.02604 4.98698 7.01562 4.86719C7.00521 4.74219 7 4.61979 7 4.5C7 4.08854 7.05208 3.69271 7.15625 3.3125C7.26562 2.92708 7.41667 2.56771 7.60938 2.23438C7.80729 1.90104 8.04427 1.59635 8.32031 1.32031C8.59635 1.04427 8.90104 0.809896 9.23438 0.617188C9.56771 0.419271 9.92448 0.268229 10.3047 0.164062C10.6901 0.0546875 11.0885 0 11.5 0C11.7812 0 12.0391 0.0234375 12.2734 0.0703125C12.513 0.111979 12.7422 0.174479 12.9609 0.257812C13.1797 0.341146 13.3958 0.440104 13.6094 0.554688C13.8229 0.664062 14.0469 0.786458 14.2812 0.921875L11.2031 4L12 4.79688L15.0781 1.71875ZM11.5 8C11.9844 8 12.4375 7.90885 12.8594 7.72656C13.2865 7.53906 13.6562 7.28906 13.9688 6.97656C14.2865 6.65885 14.5365 6.28906 14.7188 5.86719C14.9062 5.4401 15 4.98438 15 4.5C15 4.11979 14.9375 3.7526 14.8125 3.39844L12 6.20312L9.79688 4L12.6016 1.1875C12.2474 1.0625 11.8802 1 11.5 1C11.0156 1 10.5599 1.09375 10.1328 1.28125C9.71094 1.46354 9.34115 1.71354 9.02344 2.03125C8.71094 2.34375 8.46094 2.71354 8.27344 3.14062C8.09115 3.5625 8 4.01562 8 4.5C8 4.68229 8.01562 4.85938 8.04688 5.03125C8.07812 5.20312 8.11458 5.375 8.15625 5.54688L1.47656 12.2344C1.32552 12.3854 1.20833 12.5599 1.125 12.7578C1.04167 12.9557 1 13.1641 1 13.3828C1 13.6016 1.04167 13.8099 1.125 14.0078C1.21354 14.2057 1.33073 14.3776 1.47656 14.5234C1.6224 14.6693 1.79427 14.7865 1.99219 14.875C2.1901 14.9583 2.39844 15 2.61719 15C2.83594 15 3.04427 14.9583 3.24219 14.875C3.4401 14.7917 3.61458 14.6745 3.76562 14.5234L10.4531 7.84375C10.625 7.88542 10.7969 7.92188 10.9688 7.95312C11.1406 7.98438 11.3177 8 11.5 8Z" transform="translate(33 12)" fill="white"/>
  <path d="M7.54883 12.6484C6.92773 12.9766 6.1543 13.1406 5.22852 13.1406C4.0332 13.1406 3.07617 12.7559 2.35742 11.9863C1.63867 11.2168 1.2793 10.207 1.2793 8.95703C1.2793 7.61328 1.68359 6.52734 2.49219 5.69922C3.30078 4.87109 4.32617 4.45703 5.56836 4.45703C6.36523 4.45703 7.02539 4.57227 7.54883 4.80273V5.85156C6.94727 5.51562 6.2832 5.34766 5.55664 5.34766C4.5918 5.34766 3.80859 5.66992 3.20703 6.31445C2.60938 6.95898 2.31055 7.82031 2.31055 8.89844C2.31055 9.92188 2.58984 10.7383 3.14844 11.3477C3.71094 11.9531 4.44727 12.2559 5.35742 12.2559C6.20117 12.2559 6.93164 12.0684 7.54883 11.6934V12.6484ZM12.2598 7.97266C12.0918 7.84375 11.8496 7.7793 11.5332 7.7793C11.123 7.7793 10.7793 7.97266 10.502 8.35938C10.2285 8.74609 10.0918 9.27344 10.0918 9.94141V13H9.13086V7H10.0918V8.23633H10.1152C10.252 7.81445 10.4609 7.48633 10.7422 7.25195C11.0234 7.01367 11.3379 6.89453 11.6855 6.89453C11.9355 6.89453 12.127 6.92188 12.2598 6.97656V7.97266ZM18.125 10.2402H13.8887C13.9043 10.9082 14.084 11.4238 14.4277 11.7871C14.7715 12.1504 15.2441 12.332 15.8457 12.332C16.5215 12.332 17.1426 12.1094 17.709 11.6641V12.5664C17.1816 12.9492 16.4844 13.1406 15.6172 13.1406C14.7695 13.1406 14.1035 12.8691 13.6191 12.3262C13.1348 11.7793 12.8926 11.0117 12.8926 10.0234C12.8926 9.08984 13.1562 8.33008 13.6836 7.74414C14.2148 7.1543 14.873 6.85938 15.6582 6.85938C16.4434 6.85938 17.0508 7.11328 17.4805 7.62109C17.9102 8.12891 18.125 8.83398 18.125 9.73633V10.2402ZM17.1406 9.42578C17.1367 8.87109 17.002 8.43945 16.7363 8.13086C16.4746 7.82227 16.1094 7.66797 15.6406 7.66797C15.1875 7.66797 14.8027 7.83008 14.4863 8.1543C14.1699 8.47852 13.9746 8.90234 13.9004 9.42578H17.1406ZM23.8789 13H22.918V12.0625H22.8945C22.4766 12.7812 21.8613 13.1406 21.0488 13.1406C20.4512 13.1406 19.9824 12.9824 19.6426 12.666C19.3066 12.3496 19.1387 11.9297 19.1387 11.4062C19.1387 10.2852 19.7988 9.63281 21.1191 9.44922L22.918 9.19727C22.918 8.17773 22.5059 7.66797 21.6816 7.66797C20.959 7.66797 20.3066 7.91406 19.7246 8.40625V7.42188C20.3145 7.04688 20.9941 6.85938 21.7637 6.85938C23.1738 6.85938 23.8789 7.60547 23.8789 9.09766V13ZM22.918 9.96484L21.4707 10.1641C21.0254 10.2266 20.6895 10.3379 20.4629 10.498C20.2363 10.6543 20.123 10.9336 20.123 11.3359C20.123 11.6289 20.2266 11.8691 20.4336 12.0566C20.6445 12.2402 20.9238 12.332 21.2715 12.332C21.748 12.332 22.1406 12.166 22.4492 11.834C22.7617 11.498 22.918 11.0742 22.918 10.5625V9.96484ZM28.4727 12.9414C28.2461 13.0664 27.9473 13.1289 27.5762 13.1289C26.5254 13.1289 26 12.543 26 11.3711V7.82031H24.9688V7H26V5.53516L26.9609 5.22461V7H28.4727V7.82031H26.9609V11.2012C26.9609 11.6035 27.0293 11.8906 27.166 12.0625C27.3027 12.2344 27.5293 12.3203 27.8457 12.3203C28.0879 12.3203 28.2969 12.2539 28.4727 12.1211V12.9414ZM34.5781 10.2402H30.3418C30.3574 10.9082 30.5371 11.4238 30.8809 11.7871C31.2246 12.1504 31.6973 12.332 32.2988 12.332C32.9746 12.332 33.5957 12.1094 34.1621 11.6641V12.5664C33.6348 12.9492 32.9375 13.1406 32.0703 13.1406C31.2227 13.1406 30.5566 12.8691 30.0723 12.3262C29.5879 11.7793 29.3457 11.0117 29.3457 10.0234C29.3457 9.08984 29.6094 8.33008 30.1367 7.74414C30.668 7.1543 31.3262 6.85938 32.1113 6.85938C32.8965 6.85938 33.5039 7.11328 33.9336 7.62109C34.3633 8.12891 34.5781 8.83398 34.5781 9.73633V10.2402ZM33.5938 9.42578C33.5898 8.87109 33.4551 8.43945 33.1895 8.13086C32.9277 7.82227 32.5625 7.66797 32.0938 7.66797C31.6406 7.66797 31.2559 7.83008 30.9395 8.1543C30.623 8.47852 30.4277 8.90234 30.3535 9.42578H33.5938ZM45.1777 12.6484C44.5566 12.9766 43.7832 13.1406 42.8574 13.1406C41.6621 13.1406 40.7051 12.7559 39.9863 11.9863C39.2676 11.2168 38.9082 10.207 38.9082 8.95703C38.9082 7.61328 39.3125 6.52734 40.1211 5.69922C40.9297 4.87109 41.9551 4.45703 43.1973 4.45703C43.9941 4.45703 44.6543 4.57227 45.1777 4.80273V5.85156C44.5762 5.51562 43.9121 5.34766 43.1855 5.34766C42.2207 5.34766 41.4375 5.66992 40.8359 6.31445C40.2383 6.95898 39.9395 7.82031 39.9395 8.89844C39.9395 9.92188 40.2188 10.7383 40.7773 11.3477C41.3398 11.9531 42.0762 12.2559 42.9863 12.2559C43.8301 12.2559 44.5605 12.0684 45.1777 11.6934V12.6484ZM51.0547 13H50.0938V12.0625H50.0703C49.6523 12.7812 49.0371 13.1406 48.2246 13.1406C47.627 13.1406 47.1582 12.9824 46.8184 12.666C46.4824 12.3496 46.3145 11.9297 46.3145 11.4062C46.3145 10.2852 46.9746 9.63281 48.2949 9.44922L50.0938 9.19727C50.0938 8.17773 49.6816 7.66797 48.8574 7.66797C48.1348 7.66797 47.4824 7.91406 46.9004 8.40625V7.42188C47.4902 7.04688 48.1699 6.85938 48.9395 6.85938C50.3496 6.85938 51.0547 7.60547 51.0547 9.09766V13ZM50.0938 9.96484L48.6465 10.1641C48.2012 10.2266 47.8652 10.3379 47.6387 10.498C47.4121 10.6543 47.2988 10.9336 47.2988 11.3359C47.2988 11.6289 47.4023 11.8691 47.6094 12.0566C47.8203 12.2402 48.0996 12.332 48.4473 12.332C48.9238 12.332 49.3164 12.166 49.625 11.834C49.9375 11.498 50.0938 11.0742 50.0938 10.5625V9.96484ZM52.502 12.7832V11.752C53.0254 12.1387 53.6016 12.332 54.2305 12.332C55.0742 12.332 55.4961 12.0508 55.4961 11.4883C55.4961 11.3281 55.459 11.1934 55.3848 11.084C55.3145 10.9707 55.2168 10.8711 55.0918 10.7852C54.9707 10.6992 54.8262 10.623 54.6582 10.5566C54.4941 10.4863 54.3164 10.4141 54.125 10.3398C53.8594 10.2344 53.625 10.1289 53.4219 10.0234C53.2227 9.91406 53.0547 9.79297 52.918 9.66016C52.7852 9.52344 52.6836 9.36914 52.6133 9.19727C52.5469 9.02539 52.5137 8.82422 52.5137 8.59375C52.5137 8.3125 52.5781 8.06445 52.707 7.84961C52.8359 7.63086 53.0078 7.44922 53.2227 7.30469C53.4375 7.15625 53.6816 7.04492 53.9551 6.9707C54.2324 6.89648 54.5176 6.85938 54.8105 6.85938C55.3301 6.85938 55.7949 6.94922 56.2051 7.12891V8.10156C55.7637 7.8125 55.2559 7.66797 54.6816 7.66797C54.502 7.66797 54.3398 7.68945 54.1953 7.73242C54.0508 7.77148 53.9258 7.82812 53.8203 7.90234C53.7188 7.97656 53.6387 8.06641 53.5801 8.17188C53.5254 8.27344 53.498 8.38672 53.498 8.51172C53.498 8.66797 53.5254 8.79883 53.5801 8.9043C53.6387 9.00977 53.7227 9.10352 53.832 9.18555C53.9414 9.26758 54.0742 9.3418 54.2305 9.4082C54.3867 9.47461 54.5645 9.54688 54.7637 9.625C55.0293 9.72656 55.2676 9.83203 55.4785 9.94141C55.6895 10.0469 55.8691 10.168 56.0176 10.3047C56.166 10.4375 56.2793 10.5918 56.3574 10.7676C56.4395 10.9434 56.4805 11.1523 56.4805 11.3945C56.4805 11.6914 56.4141 11.9492 56.2812 12.168C56.1523 12.3867 55.9785 12.5684 55.7598 12.7129C55.541 12.8574 55.2891 12.9648 55.0039 13.0352C54.7188 13.1055 54.4199 13.1406 54.1074 13.1406C53.4902 13.1406 52.9551 13.0215 52.502 12.7832ZM62.7852 10.2402H58.5488C58.5645 10.9082 58.7441 11.4238 59.0879 11.7871C59.4316 12.1504 59.9043 12.332 60.5059 12.332C61.1816 12.332 61.8027 12.1094 62.3691 11.6641V12.5664C61.8418 12.9492 61.1445 13.1406 60.2773 13.1406C59.4297 13.1406 58.7637 12.8691 58.2793 12.3262C57.7949 11.7793 57.5527 11.0117 57.5527 10.0234C57.5527 9.08984 57.8164 8.33008 58.3438 7.74414C58.875 7.1543 59.5332 6.85938 60.3184 6.85938C61.1035 6.85938 61.7109 7.11328 62.1406 7.62109C62.5703 8.12891 62.7852 8.83398 62.7852 9.73633V10.2402ZM61.8008 9.42578C61.7969 8.87109 61.6621 8.43945 61.3965 8.13086C61.1348 7.82227 60.7695 7.66797 60.3008 7.66797C59.8477 7.66797 59.4629 7.83008 59.1465 8.1543C58.8301 8.47852 58.6348 8.90234 58.5605 9.42578H61.8008Z" transform="translate(9 35)" fill="#D8D8D8"/>
</svg>
