<!--
	Copyright (c) Microsoft Corporation. All rights reserved.
	Licensed under the MIT license.
 -->

<svg width="118" height="35" viewBox="0 0 118 35" fill="none" xmlns="http://www.w3.org/2000/svg">
  <path fill-rule="evenodd" clip-rule="evenodd" d="M0 0H118V35H0V0Z" fill="#E63323"/>
  <path d="M1.10156 13V4.59766H3.42188C6.38281 4.59766 7.86328 5.96289 7.86328 8.69336C7.86328 9.99023 7.45117 11.0332 6.62695 11.8223C5.80664 12.6074 4.70703 13 3.32812 13H1.10156ZM2.08594 5.48828V12.1094H3.33984C4.44141 12.1094 5.29883 11.8145 5.91211 11.2246C6.52539 10.6348 6.83203 9.79883 6.83203 8.7168C6.83203 6.56445 5.6875 5.48828 3.39844 5.48828H2.08594ZM14.209 10.2402H9.97266C9.98828 10.9082 10.168 11.4238 10.5117 11.7871C10.8555 12.1504 11.3281 12.332 11.9297 12.332C12.6055 12.332 13.2266 12.1094 13.793 11.6641V12.5664C13.2656 12.9492 12.5684 13.1406 11.7012 13.1406C10.8535 13.1406 10.1875 12.8691 9.70312 12.3262C9.21875 11.7793 8.97656 11.0117 8.97656 10.0234C8.97656 9.08984 9.24023 8.33008 9.76758 7.74414C10.2988 7.1543 10.957 6.85938 11.7422 6.85938C12.5273 6.85938 13.1348 7.11328 13.5645 7.62109C13.9941 8.12891 14.209 8.83398 14.209 9.73633V10.2402ZM13.2246 9.42578C13.2207 8.87109 13.0859 8.43945 12.8203 8.13086C12.5586 7.82227 12.1934 7.66797 11.7246 7.66797C11.2715 7.66797 10.8867 7.83008 10.5703 8.1543C10.2539 8.47852 10.0586 8.90234 9.98438 9.42578H13.2246ZM19.7578 12.7246C19.2969 13.002 18.75 13.1406 18.1172 13.1406C17.2617 13.1406 16.5703 12.8633 16.043 12.3086C15.5195 11.75 15.2578 11.0273 15.2578 10.1406C15.2578 9.15234 15.541 8.35938 16.1074 7.76172C16.6738 7.16016 17.4297 6.85938 18.375 6.85938C18.9023 6.85938 19.3672 6.95703 19.7695 7.15234V8.13672C19.3242 7.82422 18.8477 7.66797 18.3398 7.66797C17.7266 7.66797 17.2227 7.88867 16.8281 8.33008C16.4375 8.76758 16.2422 9.34375 16.2422 10.0586C16.2422 10.7617 16.4258 11.3164 16.793 11.7227C17.1641 12.1289 17.6602 12.332 18.2812 12.332C18.8047 12.332 19.2969 12.1582 19.7578 11.8105V12.7246ZM22.1719 13H21.2109V4.11719H22.1719V13ZM24.6094 5.47656C24.4375 5.47656 24.291 5.41797 24.1699 5.30078C24.0488 5.18359 23.9883 5.03516 23.9883 4.85547C23.9883 4.67578 24.0488 4.52734 24.1699 4.41016C24.291 4.28906 24.4375 4.22852 24.6094 4.22852C24.7852 4.22852 24.9336 4.28906 25.0547 4.41016C25.1797 4.52734 25.2422 4.67578 25.2422 4.85547C25.2422 5.02734 25.1797 5.17383 25.0547 5.29492C24.9336 5.41602 24.7852 5.47656 24.6094 5.47656ZM25.0781 13H24.1172V7H25.0781V13ZM32.0039 13H31.043V9.57812C31.043 8.30469 30.5781 7.66797 29.6484 7.66797C29.168 7.66797 28.7695 7.84961 28.4531 8.21289C28.1406 8.57227 27.9844 9.02734 27.9844 9.57812V13H27.0234V7H27.9844V7.99609H28.0078C28.4609 7.23828 29.1172 6.85938 29.9766 6.85938C30.6328 6.85938 31.1348 7.07227 31.4824 7.49805C31.8301 7.91992 32.0039 8.53125 32.0039 9.33203V13ZM38.6426 10.2402H34.4062C34.4219 10.9082 34.6016 11.4238 34.9453 11.7871C35.2891 12.1504 35.7617 12.332 36.3633 12.332C37.0391 12.332 37.6602 12.1094 38.2266 11.6641V12.5664C37.6992 12.9492 37.002 13.1406 36.1348 13.1406C35.2871 13.1406 34.6211 12.8691 34.1367 12.3262C33.6523 11.7793 33.4102 11.0117 33.4102 10.0234C33.4102 9.08984 33.6738 8.33008 34.2012 7.74414C34.7324 7.1543 35.3906 6.85938 36.1758 6.85938C36.9609 6.85938 37.5684 7.11328 37.998 7.62109C38.4277 8.12891 38.6426 8.83398 38.6426 9.73633V10.2402ZM37.6582 9.42578C37.6543 8.87109 37.5195 8.43945 37.2539 8.13086C36.9922 7.82227 36.627 7.66797 36.1582 7.66797C35.7051 7.66797 35.3203 7.83008 35.0039 8.1543C34.6875 8.47852 34.4922 8.90234 34.418 9.42578H37.6582Z" transform="translate(50 9)" fill="white"/>
  <path d="M7 3.5C7.3418 3.5 7.7041 3.51823 8.08691 3.55469C8.47428 3.59115 8.86393 3.65039 9.25586 3.73242C9.64779 3.8099 10.0374 3.91016 10.4248 4.0332C10.8167 4.15169 11.1904 4.29753 11.5459 4.4707C11.9014 4.63932 12.2318 4.83529 12.5371 5.05859C12.847 5.27734 13.1182 5.52344 13.3506 5.79688C13.5465 6.0293 13.7038 6.28451 13.8223 6.5625C13.9408 6.83594 14 7.1276 14 7.4375V8.3125C14 8.49479 13.9658 8.66569 13.8975 8.8252C13.8291 8.9847 13.7357 9.1237 13.6172 9.24219C13.4987 9.36068 13.3597 9.4541 13.2002 9.52246C13.0407 9.59082 12.8698 9.625 12.6875 9.625H10.9375C10.7552 9.625 10.5843 9.59082 10.4248 9.52246C10.2653 9.4541 10.1263 9.36068 10.0078 9.24219C9.88932 9.1237 9.7959 8.9847 9.72754 8.8252C9.65918 8.66569 9.625 8.49479 9.625 8.3125V7.4375C9.625 7.31901 9.58171 7.21647 9.49512 7.12988C9.40853 7.04329 9.30599 7 9.1875 7H4.8125C4.69401 7 4.59147 7.04329 4.50488 7.12988C4.41829 7.21647 4.375 7.31901 4.375 7.4375V8.3125C4.375 8.49479 4.34082 8.66569 4.27246 8.8252C4.2041 8.9847 4.11068 9.1237 3.99219 9.24219C3.8737 9.36068 3.7347 9.4541 3.5752 9.52246C3.41569 9.59082 3.24479 9.625 3.0625 9.625H1.3125C1.13021 9.625 0.95931 9.59082 0.799805 9.52246C0.640299 9.4541 0.501302 9.36068 0.382812 9.24219C0.264323 9.1237 0.170898 8.9847 0.102539 8.8252C0.0341797 8.66569 0 8.49479 0 8.3125V7.4375C0 7.1276 0.0592448 6.83594 0.177734 6.5625C0.296224 6.28451 0.453451 6.0293 0.649414 5.79688C0.881836 5.52344 1.15072 5.27734 1.45605 5.05859C1.76595 4.83529 2.09863 4.63932 2.4541 4.4707C2.80957 4.29753 3.18099 4.15169 3.56836 4.0332C3.96029 3.91016 4.35221 3.8099 4.74414 3.73242C5.13607 3.65039 5.52344 3.59115 5.90625 3.55469C6.28906 3.51823 6.65365 3.5 7 3.5ZM13.125 7.4375C13.125 7.20052 13.068 6.97721 12.9541 6.76758C12.8402 6.55339 12.6943 6.3597 12.5166 6.18652C12.3434 6.00879 12.152 5.85156 11.9424 5.71484C11.7327 5.57357 11.5345 5.4528 11.3477 5.35254C11.0286 5.18392 10.6891 5.03809 10.3291 4.91504C9.97363 4.79199 9.60905 4.69173 9.23535 4.61426C8.86165 4.53223 8.48568 4.47298 8.10742 4.43652C7.72917 4.39551 7.36003 4.375 7 4.375C6.63997 4.375 6.27083 4.39551 5.89258 4.43652C5.51432 4.47298 5.13835 4.53223 4.76465 4.61426C4.39095 4.69173 4.02409 4.79199 3.66406 4.91504C3.30859 5.03809 2.97135 5.18392 2.65234 5.35254C2.46549 5.4528 2.26725 5.57357 2.05762 5.71484C1.84798 5.85156 1.6543 6.00879 1.47656 6.18652C1.30339 6.3597 1.15983 6.55339 1.0459 6.76758C0.931966 6.97721 0.875 7.20052 0.875 7.4375V8.3125C0.875 8.43099 0.918294 8.53353 1.00488 8.62012C1.09147 8.70671 1.19401 8.75 1.3125 8.75H3.0625C3.18099 8.75 3.28353 8.70671 3.37012 8.62012C3.45671 8.53353 3.5 8.43099 3.5 8.3125V7.4375C3.5 7.25521 3.53418 7.08431 3.60254 6.9248C3.6709 6.7653 3.76432 6.6263 3.88281 6.50781C4.0013 6.38932 4.1403 6.2959 4.2998 6.22754C4.45931 6.15918 4.63021 6.125 4.8125 6.125H9.1875C9.36979 6.125 9.54069 6.15918 9.7002 6.22754C9.8597 6.2959 9.9987 6.38932 10.1172 6.50781C10.2357 6.6263 10.3291 6.7653 10.3975 6.9248C10.4658 7.08431 10.5 7.25521 10.5 7.4375V8.3125C10.5 8.43099 10.5433 8.53353 10.6299 8.62012C10.7165 8.70671 10.819 8.75 10.9375 8.75H12.6875C12.806 8.75 12.9085 8.70671 12.9951 8.62012C13.0817 8.53353 13.125 8.43099 13.125 8.3125V7.4375Z" transform="translate(29 11)" fill="white"/>
</svg>
