<!--
	Copyright (c) Microsoft Corporation. All rights reserved.
	Licensed under the MIT license.
 -->

<svg width="82" height="55" viewBox="0 0 82 55" fill="none" xmlns="http://www.w3.org/2000/svg">
  <rect x="0.5" y="0.5" width="81" height="54" stroke="#666666"/>
  <path d="M5 3H3V1H5V3ZM9 3H7V1H9V3ZM13 3H11V1H13V3ZM5 7H3V5H5V7ZM9 7H7V5H9V7ZM13 7H11V5H13V7ZM5 11H3V9H5V11ZM9 11H7V9H9V11ZM9 15H7V13H9V15ZM13 11H11V9H13V11Z" transform="translate(34 12)" fill="white"/>
  <path d="M6.20898 13V4.59766H8.5293C11.4902 4.59766 12.9707 5.96289 12.9707 8.69336C12.9707 9.99023 12.5586 11.0332 11.7344 11.8223C10.9141 12.6074 9.81445 13 8.43555 13H6.20898ZM7.19336 5.48828V12.1094H8.44727C9.54883 12.1094 10.4062 11.8145 11.0195 11.2246C11.6328 10.6348 11.9395 9.79883 11.9395 8.7168C11.9395 6.56445 10.7949 5.48828 8.50586 5.48828H7.19336ZM14.9863 5.47656C14.8145 5.47656 14.668 5.41797 14.5469 5.30078C14.4258 5.18359 14.3652 5.03516 14.3652 4.85547C14.3652 4.67578 14.4258 4.52734 14.5469 4.41016C14.668 4.28906 14.8145 4.22852 14.9863 4.22852C15.1621 4.22852 15.3105 4.28906 15.4316 4.41016C15.5566 4.52734 15.6191 4.67578 15.6191 4.85547C15.6191 5.02734 15.5566 5.17383 15.4316 5.29492C15.3105 5.41602 15.1621 5.47656 14.9863 5.47656ZM15.4551 13H14.4941V7H15.4551V13ZM21.6953 13H20.7344V12.0625H20.7109C20.293 12.7812 19.6777 13.1406 18.8652 13.1406C18.2676 13.1406 17.7988 12.9824 17.459 12.666C17.123 12.3496 16.9551 11.9297 16.9551 11.4062C16.9551 10.2852 17.6152 9.63281 18.9355 9.44922L20.7344 9.19727C20.7344 8.17773 20.3223 7.66797 19.498 7.66797C18.7754 7.66797 18.123 7.91406 17.541 8.40625V7.42188C18.1309 7.04688 18.8105 6.85938 19.5801 6.85938C20.9902 6.85938 21.6953 7.60547 21.6953 9.09766V13ZM20.7344 9.96484L19.2871 10.1641C18.8418 10.2266 18.5059 10.3379 18.2793 10.498C18.0527 10.6543 17.9395 10.9336 17.9395 11.3359C17.9395 11.6289 18.043 11.8691 18.25 12.0566C18.4609 12.2402 18.7402 12.332 19.0879 12.332C19.5645 12.332 19.957 12.166 20.2656 11.834C20.5781 11.498 20.7344 11.0742 20.7344 10.5625V9.96484ZM24.4668 13H23.5059V4.11719H24.4668V13ZM31.2344 10.2402H26.998C27.0137 10.9082 27.1934 11.4238 27.5371 11.7871C27.8809 12.1504 28.3535 12.332 28.9551 12.332C29.6309 12.332 30.252 12.1094 30.8184 11.6641V12.5664C30.291 12.9492 29.5938 13.1406 28.7266 13.1406C27.8789 13.1406 27.2129 12.8691 26.7285 12.3262C26.2441 11.7793 26.002 11.0117 26.002 10.0234C26.002 9.08984 26.2656 8.33008 26.793 7.74414C27.3242 7.1543 27.9824 6.85938 28.7676 6.85938C29.5527 6.85938 30.1602 7.11328 30.5898 7.62109C31.0195 8.12891 31.2344 8.83398 31.2344 9.73633V10.2402ZM30.25 9.42578C30.2461 8.87109 30.1113 8.43945 29.8457 8.13086C29.584 7.82227 29.2188 7.66797 28.75 7.66797C28.2969 7.66797 27.9121 7.83008 27.5957 8.1543C27.2793 8.47852 27.084 8.90234 27.0098 9.42578H30.25ZM35.8223 7.97266C35.6543 7.84375 35.4121 7.7793 35.0957 7.7793C34.6855 7.7793 34.3418 7.97266 34.0645 8.35938C33.791 8.74609 33.6543 9.27344 33.6543 9.94141V13H32.6934V7H33.6543V8.23633H33.6777C33.8145 7.81445 34.0234 7.48633 34.3047 7.25195C34.5859 7.01367 34.9004 6.89453 35.248 6.89453C35.498 6.89453 35.6895 6.92188 35.8223 6.97656V7.97266Z" transform="translate(21 34)" fill="#D8D8D8"/>
</svg>
