<!--
	Copyright (c) Microsoft Corporation. All rights reserved.
	Licensed under the MIT license.
 -->

<svg width="10" height="14" viewBox="0 0 10 14" fill="none" xmlns="http://www.w3.org/2000/svg">
  <path d="M4.375 2.625H2.625V0.875H4.375V2.625ZM7.875 2.625H6.125V0.875H7.875V2.625ZM11.375 2.625H9.625V0.875H11.375V2.625ZM4.375 6.125H2.625V4.375H4.375V6.125ZM7.875 6.125H6.125V4.375H7.875V6.125ZM11.375 6.125H9.625V4.375H11.375V6.125ZM4.375 9.625H2.625V7.875H4.375V9.625ZM7.875 9.625H6.125V7.875H7.875V9.625ZM7.875 13.125H6.125V11.375H7.875V13.125ZM11.375 9.625H9.625V7.875H11.375V9.625Z" transform="translate(-2)" fill="#315FA2"/>
</svg>
