<!--
	Copyright (c) Microsoft Corporation. All rights reserved.
	Licensed under the MIT license.
 -->

<svg width="82" height="55" viewBox="0 0 82 55" fill="none" xmlns="http://www.w3.org/2000/svg">
  <rect x="0.5" y="0.5" width="81" height="54" stroke="#666666"/>
  <path d="M2 7C2.14062 7 2.27083 7.02604 2.39062 7.07812C2.51042 7.13021 2.61458 7.20312 2.70312 7.29688C2.79688 7.38542 2.86979 7.48958 2.92188 7.60938C2.97396 7.72917 3 7.85938 3 8C3 8.14062 2.97396 8.27083 2.92188 8.39062C2.86979 8.51042 2.79688 8.61719 2.70312 8.71094C2.61458 8.79948 2.51042 8.86979 2.39062 8.92188C2.27083 8.97396 2.14062 9 2 9C1.85938 9 1.72917 8.97396 1.60938 8.92188C1.48958 8.86979 1.38281 8.79948 1.28906 8.71094C1.20052 8.61719 1.13021 8.51042 1.07812 8.39062C1.02604 8.27083 1 8.14062 1 8C1 7.85938 1.02604 7.72917 1.07812 7.60938C1.13021 7.48958 1.20052 7.38542 1.28906 7.29688C1.38281 7.20312 1.48958 7.13021 1.60938 7.07812C1.72917 7.02604 1.85938 7 2 7ZM8 7C8.14062 7 8.27083 7.02604 8.39062 7.07812C8.51042 7.13021 8.61458 7.20312 8.70312 7.29688C8.79688 7.38542 8.86979 7.48958 8.92188 7.60938C8.97396 7.72917 9 7.85938 9 8C9 8.14062 8.97396 8.27083 8.92188 8.39062C8.86979 8.51042 8.79688 8.61719 8.70312 8.71094C8.61458 8.79948 8.51042 8.86979 8.39062 8.92188C8.27083 8.97396 8.14062 9 8 9C7.85938 9 7.72917 8.97396 7.60938 8.92188C7.48958 8.86979 7.38281 8.79948 7.28906 8.71094C7.20052 8.61719 7.13021 8.51042 7.07812 8.39062C7.02604 8.27083 7 8.14062 7 8C7 7.85938 7.02604 7.72917 7.07812 7.60938C7.13021 7.48958 7.20052 7.38542 7.28906 7.29688C7.38281 7.20312 7.48958 7.13021 7.60938 7.07812C7.72917 7.02604 7.85938 7 8 7ZM14 7C14.1406 7 14.2708 7.02604 14.3906 7.07812C14.5104 7.13021 14.6146 7.20312 14.7031 7.29688C14.7969 7.38542 14.8698 7.48958 14.9219 7.60938C14.974 7.72917 15 7.85938 15 8C15 8.14062 14.974 8.27083 14.9219 8.39062C14.8698 8.51042 14.7969 8.61719 14.7031 8.71094C14.6146 8.79948 14.5104 8.86979 14.3906 8.92188C14.2708 8.97396 14.1406 9 14 9C13.8594 9 13.7292 8.97396 13.6094 8.92188C13.4896 8.86979 13.3828 8.79948 13.2891 8.71094C13.2005 8.61719 13.1302 8.51042 13.0781 8.39062C13.026 8.27083 13 8.14062 13 8C13 7.85938 13.026 7.72917 13.0781 7.60938C13.1302 7.48958 13.2005 7.38542 13.2891 7.29688C13.3828 7.20312 13.4896 7.13021 13.6094 7.07812C13.7292 7.02604 13.8594 7 14 7Z" transform="translate(34 12)" fill="white"/>
  <path d="M10.0352 13H9.05664V7.36328C9.05664 6.91797 9.08398 6.37305 9.13867 5.72852H9.11523C9.02148 6.10742 8.9375 6.37891 8.86328 6.54297L5.99219 13H5.51172L2.64648 6.58984C2.56445 6.40234 2.48047 6.11523 2.39453 5.72852H2.37109C2.40234 6.06445 2.41797 6.61328 2.41797 7.375V13H1.46875V4.59766H2.76953L5.34766 10.457C5.54688 10.9062 5.67578 11.2422 5.73438 11.4648H5.76953C5.9375 11.0039 6.07227 10.6602 6.17383 10.4336L8.80469 4.59766H10.0352V13ZM14.6289 13.1406C13.7422 13.1406 13.0332 12.8613 12.502 12.3027C11.9746 11.7402 11.7109 10.9961 11.7109 10.0703C11.7109 9.0625 11.9863 8.27539 12.5371 7.70898C13.0879 7.14258 13.832 6.85938 14.7695 6.85938C15.6641 6.85938 16.3613 7.13477 16.8613 7.68555C17.3652 8.23633 17.6172 9 17.6172 9.97656C17.6172 10.9336 17.3457 11.7012 16.8027 12.2793C16.2637 12.8535 15.5391 13.1406 14.6289 13.1406ZM14.6992 7.66797C14.082 7.66797 13.5938 7.87891 13.2344 8.30078C12.875 8.71875 12.6953 9.29688 12.6953 10.0352C12.6953 10.7461 12.877 11.3066 13.2402 11.7168C13.6035 12.127 14.0898 12.332 14.6992 12.332C15.3203 12.332 15.7969 12.1309 16.1289 11.7285C16.4648 11.3262 16.6328 10.7539 16.6328 10.0117C16.6328 9.26172 16.4648 8.68359 16.1289 8.27734C15.7969 7.87109 15.3203 7.66797 14.6992 7.66797ZM22.2812 7.97266C22.1133 7.84375 21.8711 7.7793 21.5547 7.7793C21.1445 7.7793 20.8008 7.97266 20.5234 8.35938C20.25 8.74609 20.1133 9.27344 20.1133 9.94141V13H19.1523V7H20.1133V8.23633H20.1367C20.2734 7.81445 20.4824 7.48633 20.7637 7.25195C21.0449 7.01367 21.3594 6.89453 21.707 6.89453C21.957 6.89453 22.1484 6.92188 22.2812 6.97656V7.97266ZM28.1465 10.2402H23.9102C23.9258 10.9082 24.1055 11.4238 24.4492 11.7871C24.793 12.1504 25.2656 12.332 25.8672 12.332C26.543 12.332 27.1641 12.1094 27.7305 11.6641V12.5664C27.2031 12.9492 26.5059 13.1406 25.6387 13.1406C24.791 13.1406 24.125 12.8691 23.6406 12.3262C23.1562 11.7793 22.9141 11.0117 22.9141 10.0234C22.9141 9.08984 23.1777 8.33008 23.7051 7.74414C24.2363 7.1543 24.8945 6.85938 25.6797 6.85938C26.4648 6.85938 27.0723 7.11328 27.502 7.62109C27.9316 8.12891 28.1465 8.83398 28.1465 9.73633V10.2402ZM27.1621 9.42578C27.1582 8.87109 27.0234 8.43945 26.7578 8.13086C26.4961 7.82227 26.1309 7.66797 25.6621 7.66797C25.209 7.66797 24.8242 7.83008 24.5078 8.1543C24.1914 8.47852 23.9961 8.90234 23.9219 9.42578H27.1621Z" transform="translate(27 35)" fill="#D8D8D8"/>
</svg>
