<!--
	Copyright (c) Microsoft Corporation. All rights reserved.
	Licensed under the MIT license.
 -->

<svg width="81" height="55" viewBox="0 0 81 55" fill="none" xmlns="http://www.w3.org/2000/svg">
  <rect x="0.5" y="0.5" width="80" height="54" stroke="#666666"/>
  <path d="M5.5 12C5.29167 12 5.09635 11.9609 4.91406 11.8828C4.73177 11.8047 4.57292 11.6979 4.4375 11.5625C4.30208 11.4271 4.19531 11.2682 4.11719 11.0859C4.03906 10.9036 4 10.7083 4 10.5V1.5C4 1.29167 4.03906 1.09635 4.11719 0.914062C4.19531 0.731771 4.30208 0.572917 4.4375 0.4375C4.57292 0.302083 4.73177 0.195312 4.91406 0.117188C5.09635 0.0390625 5.29167 0 5.5 0H9.5C9.70833 0 9.90365 0.0390625 10.0859 0.117188C10.2682 0.195312 10.4271 0.302083 10.5625 0.4375C10.6979 0.572917 10.8047 0.731771 10.8828 0.914062C10.9609 1.09635 11 1.29167 11 1.5V10.5C11 10.7083 10.9609 10.9036 10.8828 11.0859C10.8047 11.2682 10.6979 11.4271 10.5625 11.5625C10.4271 11.6979 10.2682 11.8047 10.0859 11.8828C9.90365 11.9609 9.70833 12 9.5 12H5.5ZM5 10.5C5 10.6354 5.04948 10.7526 5.14844 10.8516C5.2474 10.9505 5.36458 11 5.5 11H9.5C9.63542 11 9.7526 10.9505 9.85156 10.8516C9.95052 10.7526 10 10.6354 10 10.5V1.5C10 1.36458 9.95052 1.2474 9.85156 1.14844C9.7526 1.04948 9.63542 1 9.5 1H5.5C5.36458 1 5.2474 1.04948 5.14844 1.14844C5.04948 1.2474 5 1.36458 5 1.5V10.5ZM13 8V10.8281C13 11.2656 12.9167 11.6771 12.75 12.0625C12.5833 12.4479 12.3568 12.7839 12.0703 13.0703C11.7839 13.3568 11.4479 13.5833 11.0625 13.75C10.6771 13.9167 10.2656 14 9.82812 14H8V15H10V16H5V15H7V14H5.17188C4.73438 14 4.32292 13.9167 3.9375 13.75C3.55208 13.5833 3.21615 13.3568 2.92969 13.0703C2.64323 12.7839 2.41667 12.4479 2.25 12.0625C2.08333 11.6771 2 11.2656 2 10.8281V8H3V10.8281C3 11.125 3.05729 11.4062 3.17188 11.6719C3.28646 11.9375 3.4401 12.1693 3.63281 12.3672C3.83073 12.5599 4.0625 12.7135 4.32812 12.8281C4.59375 12.9427 4.875 13 5.17188 13H9.82812C10.125 13 10.4062 12.9427 10.6719 12.8281C10.9375 12.7135 11.1667 12.5599 11.3594 12.3672C11.5573 12.1693 11.7135 11.9375 11.8281 11.6719C11.9427 11.4062 12 11.125 12 10.8281V8H13Z" transform="translate(33 12)" fill="white"/>
  <path d="M9.66797 13H8.68945V7.36328C8.68945 6.91797 8.7168 6.37305 8.77148 5.72852H8.74805C8.6543 6.10742 8.57031 6.37891 8.49609 6.54297L5.625 13H5.14453L2.2793 6.58984C2.19727 6.40234 2.11328 6.11523 2.02734 5.72852H2.00391C2.03516 6.06445 2.05078 6.61328 2.05078 7.375V13H1.10156V4.59766H2.40234L4.98047 10.457C5.17969 10.9062 5.30859 11.2422 5.36719 11.4648H5.40234C5.57031 11.0039 5.70508 10.6602 5.80664 10.4336L8.4375 4.59766H9.66797V13ZM16.6055 13H15.6445V12.0508H15.6211C15.2227 12.7773 14.6055 13.1406 13.7695 13.1406C12.3398 13.1406 11.625 12.2891 11.625 10.5859V7H12.5801V10.4336C12.5801 11.6992 13.0645 12.332 14.0332 12.332C14.502 12.332 14.8867 12.1602 15.1875 11.8164C15.4922 11.4688 15.6445 11.0156 15.6445 10.457V7H16.6055V13ZM21.334 12.9414C21.1074 13.0664 20.8086 13.1289 20.4375 13.1289C19.3867 13.1289 18.8613 12.543 18.8613 11.3711V7.82031H17.8301V7H18.8613V5.53516L19.8223 5.22461V7H21.334V7.82031H19.8223V11.2012C19.8223 11.6035 19.8906 11.8906 20.0273 12.0625C20.1641 12.2344 20.3906 12.3203 20.707 12.3203C20.9492 12.3203 21.1582 12.2539 21.334 12.1211V12.9414ZM27.4395 10.2402H23.2031C23.2188 10.9082 23.3984 11.4238 23.7422 11.7871C24.0859 12.1504 24.5586 12.332 25.1602 12.332C25.8359 12.332 26.457 12.1094 27.0234 11.6641V12.5664C26.4961 12.9492 25.7988 13.1406 24.9316 13.1406C24.084 13.1406 23.418 12.8691 22.9336 12.3262C22.4492 11.7793 22.207 11.0117 22.207 10.0234C22.207 9.08984 22.4707 8.33008 22.998 7.74414C23.5293 7.1543 24.1875 6.85938 24.9727 6.85938C25.7578 6.85938 26.3652 7.11328 26.7949 7.62109C27.2246 8.12891 27.4395 8.83398 27.4395 9.73633V10.2402ZM26.4551 9.42578C26.4512 8.87109 26.3164 8.43945 26.0508 8.13086C25.7891 7.82227 25.4238 7.66797 24.9551 7.66797C24.502 7.66797 24.1172 7.83008 23.8008 8.1543C23.4844 8.47852 23.2891 8.90234 23.2148 9.42578H26.4551Z" transform="translate(27 34)" fill="#D8D8D8"/>
</svg>
