<!--
	Copyright (c) Microsoft Corporation. All rights reserved.
	Licensed under the MIT license.
 -->

<svg width="14" height="14" viewBox="0 0 14 14" fill="none" xmlns="http://www.w3.org/2000/svg">
  <path d="M7 3.5V7.25293L9.49512 9.75488L8.87988 10.3701L6.125 7.62207V3.5H7ZM13.4531 4.27246C13.8177 5.14746 14 6.05664 14 7C14 7.94336 13.8177 8.85254 13.4531 9.72754C13.0977 10.5615 12.5964 11.3021 11.9492 11.9492C11.3021 12.5964 10.5615 13.0977 9.72754 13.4531C8.85254 13.8177 7.94336 14 7 14C6.20703 14 5.44141 13.8701 4.70312 13.6104C3.98307 13.3597 3.32454 13.0042 2.72754 12.5439C2.13509 12.0837 1.62695 11.5413 1.20312 10.917C0.988932 10.6025 0.802083 10.2744 0.642578 9.93262C0.48763 9.59082 0.360026 9.23535 0.259766 8.86621L1.10059 8.63379C1.28288 9.2946 1.56315 9.90072 1.94141 10.4521C2.32422 11.0036 2.77539 11.4775 3.29492 11.874C3.81445 12.2705 4.39095 12.5781 5.02441 12.7969C5.65788 13.0156 6.31641 13.125 7 13.125C7.56055 13.125 8.10059 13.0521 8.62012 12.9062C9.14421 12.7604 9.63184 12.5553 10.083 12.291C10.5387 12.0221 10.9535 11.7008 11.3271 11.3271C11.7008 10.9535 12.0199 10.541 12.2842 10.0898C12.5531 9.63411 12.7604 9.14648 12.9062 8.62695C13.0521 8.10742 13.125 7.5651 13.125 7C13.125 6.43945 13.0521 5.89941 12.9062 5.37988C12.7604 4.85579 12.5531 4.36816 12.2842 3.91699C12.0199 3.46126 11.7008 3.04655 11.3271 2.67285C10.9535 2.29915 10.5387 1.98014 10.083 1.71582C9.63184 1.44694 9.14421 1.23958 8.62012 1.09375C8.10059 0.947917 7.56055 0.875 7 0.875C6.40755 0.875 5.83333 0.95931 5.27734 1.12793C4.72135 1.29199 4.20182 1.52669 3.71875 1.83203C3.24023 2.13737 2.80729 2.50651 2.41992 2.93945C2.03711 3.36784 1.72038 3.84635 1.46973 4.375H3.5V5.25H0V1.75H0.875V3.62305C0.952474 3.47721 1.03678 3.33594 1.12793 3.19922C1.21908 3.05794 1.31478 2.92122 1.41504 2.78906C1.84342 2.2194 2.34473 1.72721 2.91895 1.3125C3.52051 0.884115 4.16536 0.558268 4.85352 0.334961C5.54167 0.111654 6.25716 0 7 0C7.94336 0 8.85254 0.182292 9.72754 0.546875C10.5615 0.902344 11.3021 1.40365 11.9492 2.05078C12.5964 2.69792 13.0977 3.43848 13.4531 4.27246Z" fill="#2F64A8"/>
</svg>
