<!--
	Copyright (c) Microsoft Corporation. All rights reserved.
	Licensed under the MIT license.
 -->

<svg width="14" height="14" viewBox="0 0 14 14" fill="none" xmlns="http://www.w3.org/2000/svg">
	<path d="M13.125 0V14H1.75V12.2637H0.875V11.3887H1.75V9.63184H0.875V8.75684H1.75V5.25684H0.875V4.38184H1.75V2.63184H0.875V1.75684H1.75V0H13.125ZM12.25 0.875H2.625V13.125H12.25V0.875ZM11.375 3.5H7V2.625H11.375V3.5ZM11.375 5.25H7V4.375H11.375V5.25ZM4.8125 11.3477C4.63477 11.3477 4.46615 11.3158 4.30664 11.252C4.15169 11.1836 4.01497 11.0924 3.89648 10.9785C3.78255 10.86 3.69141 10.7233 3.62305 10.5684C3.55924 10.4089 3.52734 10.2402 3.52734 10.0625C3.52734 9.88477 3.55924 9.71842 3.62305 9.56348C3.69141 9.40853 3.78255 9.27409 3.89648 9.16016C4.01497 9.04167 4.15169 8.94824 4.30664 8.87988C4.46615 8.81152 4.63477 8.77734 4.8125 8.77734C4.99023 8.77734 5.15658 8.81152 5.31152 8.87988C5.46647 8.94824 5.60091 9.04167 5.71484 9.16016C5.83333 9.27409 5.92676 9.40853 5.99512 9.56348C6.06348 9.71842 6.09766 9.88477 6.09766 10.0625C6.09766 10.2402 6.06348 10.4089 5.99512 10.5684C5.92676 10.7233 5.83333 10.86 5.71484 10.9785C5.60091 11.0924 5.46647 11.1836 5.31152 11.252C5.15658 11.3158 4.99023 11.3477 4.8125 11.3477ZM4.8125 9.59766C4.68034 9.59766 4.56868 9.64323 4.47754 9.73438C4.39095 9.82096 4.34766 9.93034 4.34766 10.0625C4.34766 10.1947 4.39095 10.3063 4.47754 10.3975C4.56868 10.484 4.68034 10.5273 4.8125 10.5273C4.94466 10.5273 5.05404 10.484 5.14062 10.3975C5.23177 10.3063 5.27734 10.1947 5.27734 10.0625C5.27734 9.93034 5.23177 9.82096 5.14062 9.73438C5.05404 9.64323 4.94466 9.59766 4.8125 9.59766ZM4.8125 5.22266C4.63477 5.22266 4.46615 5.19076 4.30664 5.12695C4.15169 5.05859 4.01497 4.96745 3.89648 4.85352C3.78255 4.73503 3.69141 4.59831 3.62305 4.44336C3.55924 4.28385 3.52734 4.11523 3.52734 3.9375C3.52734 3.75977 3.55924 3.59342 3.62305 3.43848C3.69141 3.28353 3.78255 3.14909 3.89648 3.03516C4.01497 2.91667 4.15169 2.82324 4.30664 2.75488C4.46615 2.68652 4.63477 2.65234 4.8125 2.65234C4.99023 2.65234 5.15658 2.68652 5.31152 2.75488C5.46647 2.82324 5.60091 2.91667 5.71484 3.03516C5.83333 3.14909 5.92676 3.28353 5.99512 3.43848C6.06348 3.59342 6.09766 3.75977 6.09766 3.9375C6.09766 4.11523 6.06348 4.28385 5.99512 4.44336C5.92676 4.59831 5.83333 4.73503 5.71484 4.85352C5.60091 4.96745 5.46647 5.05859 5.31152 5.12695C5.15658 5.19076 4.99023 5.22266 4.8125 5.22266ZM4.8125 3.47266C4.68034 3.47266 4.56868 3.51823 4.47754 3.60938C4.39095 3.69596 4.34766 3.80534 4.34766 3.9375C4.34766 4.06966 4.39095 4.18132 4.47754 4.27246C4.56868 4.35905 4.68034 4.40234 4.8125 4.40234C4.94466 4.40234 5.05404 4.35905 5.14062 4.27246C5.23177 4.18132 5.27734 4.06966 5.27734 3.9375C5.27734 3.80534 5.23177 3.69596 5.14062 3.60938C5.05404 3.51823 4.94466 3.47266 4.8125 3.47266ZM11.375 9.625H7V8.75H11.375V9.625ZM11.375 11.375H7V10.5H11.375V11.375Z" fill="#3B79B7"/>
</svg>
