<?xml version="1.0" encoding="UTF-8"?>
<svg xmlns="http://www.w3.org/2000/svg" xmlns:xlink="http://www.w3.org/1999/xlink" width="81" height="55" viewBox="0 0 200 200" version="1.1">
<g id="surface1">
<path style=" stroke:none;fill-rule:evenodd;fill:rgb(98.431373%,98.431373%,98.431373%);fill-opacity:1;" d="M 42.390625 90.554688 L 42.398438 163.574219 L 58.722656 172.636719 C 72.660156 180.375 75.113281 181.671875 75.5 181.523438 C 75.75 181.425781 94.238281 170.800781 116.589844 157.910156 L 157.226562 134.472656 L 157.175781 115.847656 L 157.128906 97.21875 L 120.898438 84.476562 C 100.972656 77.464844 84.648438 71.746094 84.621094 71.765625 C 84.527344 71.84375 98.683594 106.949219 98.894531 107.152344 C 99.019531 107.269531 103.691406 109.5 109.277344 112.105469 C 114.863281 114.714844 119.894531 117.078125 120.457031 117.359375 L 121.480469 117.875 L 98.386719 131.210938 L 75.292969 144.542969 L 75.195312 86.777344 L 75.097656 29.007812 L 59.179688 23.390625 C 50.425781 20.300781 43.0625 17.71875 42.824219 17.652344 L 42.382812 17.535156 L 42.390625 90.554688 "/>
<path style=" stroke:none;fill-rule:evenodd;fill:rgb(4.705882%,51.764706%,51.764706%);fill-opacity:1;" d="M 0 100 L 0 200 L 200 200 L 200 0 L 0 0 L 0 100 M 58.691406 23.101562 C 67.390625 26.171875 74.664062 28.742188 74.851562 28.816406 C 75.179688 28.941406 75.195312 31.878906 75.195312 86.664062 C 75.195312 133.933594 75.242188 144.359375 75.449219 144.28125 C 75.65625 144.199219 121.085938 118.007812 121.238281 117.882812 C 121.261719 117.859375 116.210938 115.46875 110.007812 112.570312 L 98.730469 107.292969 L 91.585938 89.535156 C 87.65625 79.769531 84.535156 71.753906 84.652344 71.726562 C 84.769531 71.703125 101.167969 77.414062 121.09375 84.425781 L 157.324219 97.167969 L 157.425781 134.480469 L 116.464844 158.097656 C 93.933594 171.089844 75.367188 181.722656 75.203125 181.726562 C 75.039062 181.734375 67.542969 177.652344 58.550781 172.65625 L 42.199219 163.574219 L 42.191406 90.457031 C 42.1875 20.910156 42.203125 17.34375 42.53125 17.429688 C 42.71875 17.484375 49.988281 20.035156 58.691406 23.101562 "/>
<path style=" stroke:none;fill-rule:evenodd;fill:rgb(36.862745%,67.843137%,67.843137%);fill-opacity:1;" d="M 42.285156 90.527344 C 42.285156 130.703125 42.304688 147.109375 42.335938 126.984375 C 42.363281 106.863281 42.363281 73.992188 42.335938 53.9375 C 42.304688 33.886719 42.285156 50.351562 42.285156 90.527344 "/>
<path style=" stroke:none;fill-rule:evenodd;fill:rgb(54.901961%,76.862745%,76.862745%);fill-opacity:1;" d="M 157.226562 115.78125 L 157.324219 134.472656 L 157.375 115.929688 C 157.402344 105.730469 157.359375 97.320312 157.277344 97.238281 C 157.195312 97.15625 157.171875 105.5 157.226562 115.78125 "/>
</g>
</svg>
