<!--
	Copyright (c) Microsoft Corporation. All rights reserved.
	Licensed under the MIT license.
 -->

<svg width="111" height="40" viewBox="0 0 111 40" fill="none" xmlns="http://www.w3.org/2000/svg">
  <path fill-rule="evenodd" clip-rule="evenodd" d="M0 0H111V40H0V0Z" fill="#3B79B7"/>
  <path d="M8.0459 14.5898C7.30762 14.9727 6.38932 15.1641 5.29102 15.1641C3.86914 15.1641 2.72982 14.7152 1.87305 13.8174C1.01628 12.9196 0.587891 11.7415 0.587891 10.2832C0.587891 8.71549 1.06868 7.44857 2.03027 6.48242C2.99642 5.51628 4.21549 5.0332 5.6875 5.0332C6.63542 5.0332 7.42155 5.16764 8.0459 5.43652V7.0498C7.38509 6.65788 6.65592 6.46191 5.8584 6.46191C4.79655 6.46191 3.93522 6.80143 3.27441 7.48047C2.61816 8.15951 2.29004 9.06641 2.29004 10.2012C2.29004 11.2812 2.59766 12.1426 3.21289 12.7852C3.82812 13.4232 4.63704 13.7422 5.63965 13.7422C6.56478 13.7422 7.36686 13.5234 8.0459 13.0859V14.5898ZM15.235 15H13.6969V13.9062H13.6696C13.1865 14.7448 12.4778 15.1641 11.5436 15.1641C10.8554 15.1641 10.3154 14.9772 9.92346 14.6035C9.53609 14.2298 9.34241 13.7354 9.34241 13.1201C9.34241 11.7985 10.1035 11.0283 11.6256 10.8096L13.7037 10.5156C13.7037 9.51758 13.2298 9.01855 12.2819 9.01855C11.4479 9.01855 10.6959 9.30566 10.026 9.87988V8.49219C10.7643 8.05469 11.6165 7.83594 12.5826 7.83594C14.3509 7.83594 15.235 8.70638 15.235 10.4473V15ZM13.7037 11.5615L12.234 11.7666C11.7783 11.8258 11.4342 11.9375 11.2018 12.1016C10.9739 12.2611 10.86 12.5436 10.86 12.9492C10.86 13.2454 10.9648 13.4893 11.1744 13.6807C11.3886 13.8675 11.6735 13.9609 12.0289 13.9609C12.512 13.9609 12.9108 13.7923 13.2252 13.4551C13.5442 13.1133 13.7037 12.6849 13.7037 12.1699V11.5615ZM18.9036 15H17.3108V4.63672H18.9036V15ZM22.702 15H21.1093V4.63672H22.702V15Z" transform="translate(54.0714 10)" fill="white"/>
  <path d="M12.5547 9.47656C12.7839 9.47656 13.0026 9.52083 13.2109 9.60938C13.4245 9.69271 13.612 9.8151 13.7734 9.97656L15.4922 11.6953C15.6536 11.8568 15.776 12.0443 15.8594 12.2578C15.9479 12.4661 15.9922 12.6849 15.9922 12.9141C15.9922 13.1432 15.9479 13.3646 15.8594 13.5781C15.776 13.7865 15.6536 13.9714 15.4922 14.1328L15.3828 14.2422C15.1016 14.5234 14.8438 14.7734 14.6094 14.9922C14.375 15.2109 14.1302 15.3958 13.875 15.5469C13.6198 15.6927 13.3359 15.8047 13.0234 15.8828C12.7109 15.9609 12.3385 16 11.9062 16C11.2552 16 10.5859 15.8984 9.89844 15.6953C9.21094 15.4922 8.52604 15.2109 7.84375 14.8516C7.16667 14.4922 6.5 14.0651 5.84375 13.5703C5.19271 13.0755 4.57552 12.5365 3.99219 11.9531C3.41406 11.3646 2.88021 10.7448 2.39062 10.0938C1.90104 9.4375 1.47917 8.77083 1.125 8.09375C0.770833 7.41146 0.494792 6.73177 0.296875 6.05469C0.0989583 5.3776 0 4.72135 0 4.08594C0 3.65365 0.0364583 3.28385 0.109375 2.97656C0.1875 2.66927 0.299479 2.38802 0.445312 2.13281C0.596354 1.8776 0.778646 1.63542 0.992188 1.40625C1.21094 1.17188 1.46094 0.914062 1.74219 0.632812L1.86719 0.507812C2.02865 0.346354 2.21354 0.221354 2.42188 0.132812C2.63021 0.0442708 2.85156 0 3.08594 0C3.3151 0 3.53385 0.0442708 3.74219 0.132812C3.95573 0.221354 4.14323 0.346354 4.30469 0.507812L6.02344 2.22656C6.1849 2.38802 6.30729 2.57552 6.39062 2.78906C6.47917 2.9974 6.52344 3.21615 6.52344 3.44531C6.52344 3.67448 6.48438 3.88021 6.40625 4.0625C6.32812 4.23958 6.23177 4.40104 6.11719 4.54688C6.0026 4.69271 5.875 4.82552 5.73438 4.94531C5.59896 5.0651 5.47396 5.18229 5.35938 5.29688C5.24479 5.41146 5.14844 5.52865 5.07031 5.64844C4.99219 5.76302 4.95312 5.88802 4.95312 6.02344C4.95312 6.22135 5.02344 6.39062 5.16406 6.53125L9.46875 10.8359C9.60938 10.9766 9.77865 11.0469 9.97656 11.0469C10.112 11.0469 10.237 11.0078 10.3516 10.9297C10.4714 10.8516 10.5885 10.7552 10.7031 10.6406C10.8177 10.526 10.9349 10.401 11.0547 10.2656C11.1745 10.125 11.3073 9.9974 11.4531 9.88281C11.599 9.76823 11.7604 9.67188 11.9375 9.59375C12.1198 9.51562 12.3255 9.47656 12.5547 9.47656ZM11.9062 15C12.2812 15 12.5938 14.9661 12.8438 14.8984C13.099 14.8255 13.3281 14.724 13.5312 14.5938C13.7344 14.4583 13.9323 14.2917 14.125 14.0938C14.3177 13.8958 14.5391 13.6719 14.7891 13.4219C14.9297 13.2812 15 13.112 15 12.9141C15 12.8203 14.9609 12.7109 14.8828 12.5859C14.8099 12.4557 14.7135 12.3203 14.5938 12.1797C14.474 12.0391 14.3385 11.8958 14.1875 11.75C14.0417 11.599 13.8958 11.4583 13.75 11.3281C13.6094 11.1927 13.4766 11.0703 13.3516 10.9609C13.2318 10.8464 13.138 10.7552 13.0703 10.6875C12.9297 10.5469 12.7578 10.4766 12.5547 10.4766C12.4193 10.4766 12.2943 10.5156 12.1797 10.5938C12.0651 10.6719 11.9505 10.7682 11.8359 10.8828C11.7214 10.9974 11.6016 11.125 11.4766 11.2656C11.3568 11.401 11.224 11.526 11.0781 11.6406C10.9323 11.7552 10.7682 11.8516 10.5859 11.9297C10.4089 12.0078 10.2057 12.0469 9.97656 12.0469C9.7474 12.0469 9.52604 12.0052 9.3125 11.9219C9.10417 11.8333 8.91927 11.7083 8.75781 11.5469L4.45312 7.24219C4.29167 7.08073 4.16667 6.89583 4.07812 6.6875C3.99479 6.47396 3.95312 6.2526 3.95312 6.02344C3.95312 5.79427 3.99219 5.59115 4.07031 5.41406C4.14844 5.23177 4.24479 5.06771 4.35938 4.92188C4.47396 4.77604 4.59896 4.64323 4.73438 4.52344C4.875 4.39844 5.0026 4.27865 5.11719 4.16406C5.23177 4.04948 5.32812 3.9349 5.40625 3.82031C5.48438 3.70573 5.52344 3.58073 5.52344 3.44531C5.52344 3.24219 5.45312 3.07031 5.3125 2.92969C5.24479 2.86198 5.15365 2.76823 5.03906 2.64844C4.92969 2.52344 4.80729 2.39062 4.67188 2.25C4.54167 2.10417 4.40104 1.95833 4.25 1.8125C4.10417 1.66146 3.96094 1.52604 3.82031 1.40625C3.67969 1.28646 3.54427 1.1901 3.41406 1.11719C3.28906 1.03906 3.17969 1 3.08594 1C2.88802 1 2.71875 1.07031 2.57812 1.21094C2.32812 1.46094 2.10417 1.68229 1.90625 1.875C1.71354 2.06771 1.54688 2.26562 1.40625 2.46875C1.27083 2.67188 1.16667 2.90104 1.09375 3.15625C1.02604 3.40625 0.992188 3.71615 0.992188 4.08594C0.992188 4.66927 1.08594 5.27083 1.27344 5.89062C1.46615 6.51042 1.72917 7.13021 2.0625 7.75C2.40104 8.36979 2.79948 8.98177 3.25781 9.58594C3.71615 10.1849 4.21615 10.7526 4.75781 11.2891C5.29948 11.8255 5.86979 12.3203 6.46875 12.7734C7.07292 13.2266 7.68229 13.6198 8.29688 13.9531C8.91667 14.2812 9.53125 14.5391 10.1406 14.7266C10.7552 14.9089 11.3438 15 11.9062 15Z" transform="translate(31 11.9043)" fill="white"/>
</svg>
