<!--
	Copyright (c) Microsoft Corporation. All rights reserved.
	Licensed under the MIT license.
 -->

<svg width="229" height="35" viewBox="0 0 229 35" fill="none" xmlns="http://www.w3.org/2000/svg">
  <path fill-rule="evenodd" clip-rule="evenodd" d="M0 0H229V35H0V0Z" fill="#E63323"/>
  <path d="M9.375 2.5C9.77865 2.5 10.2214 2.52279 10.7031 2.56836C11.1914 2.61393 11.6927 2.6888 12.207 2.79297C12.7214 2.89062 13.2389 3.02083 13.7598 3.18359C14.2871 3.33984 14.7917 3.52865 15.2734 3.75C15.7617 3.97135 16.2142 4.22526 16.6309 4.51172C17.054 4.79818 17.4219 5.1237 17.7344 5.48828C18.0534 5.84635 18.3008 6.24674 18.4766 6.68945C18.6589 7.12565 18.75 7.60417 18.75 8.125V9.375C18.75 9.63542 18.7012 9.87956 18.6035 10.1074C18.5059 10.3353 18.3724 10.5339 18.2031 10.7031C18.0339 10.8724 17.8353 11.0059 17.6074 11.1035C17.3796 11.2012 17.1354 11.25 16.875 11.25H14.375C14.0104 11.25 13.7142 11.1979 13.4863 11.0938C13.2585 10.9831 13.0794 10.8398 12.9492 10.6641C12.819 10.4883 12.7246 10.2897 12.666 10.0684C12.6139 9.84049 12.5749 9.60938 12.5488 9.375C12.5293 9.14062 12.513 8.91276 12.5 8.69141C12.4935 8.46354 12.4707 8.26172 12.4316 8.08594C12.3991 7.91016 12.3405 7.77018 12.2559 7.66602C12.1712 7.55534 12.0443 7.5 11.875 7.5H6.875C6.70573 7.5 6.57878 7.55534 6.49414 7.66602C6.40951 7.77018 6.34766 7.91016 6.30859 8.08594C6.27604 8.26172 6.25326 8.46354 6.24023 8.69141C6.23372 8.91276 6.21745 9.14062 6.19141 9.375C6.17188 9.60938 6.13281 9.84049 6.07422 10.0684C6.02214 10.2897 5.93099 10.4883 5.80078 10.6641C5.67057 10.8398 5.49154 10.9831 5.26367 11.0938C5.03581 11.1979 4.73958 11.25 4.375 11.25H1.875C1.61458 11.25 1.37044 11.2012 1.14258 11.1035C0.914714 11.0059 0.716146 10.8724 0.546875 10.7031C0.377604 10.5339 0.244141 10.3353 0.146484 10.1074C0.0488281 9.87956 0 9.63542 0 9.375V8.125C0 7.60417 0.0878906 7.12565 0.263672 6.68945C0.445964 6.24674 0.693359 5.84635 1.00586 5.48828C1.32487 5.1237 1.69271 4.79818 2.10938 4.51172C2.53255 4.22526 2.98503 3.97135 3.4668 3.75C3.95508 3.52865 4.45964 3.33984 4.98047 3.18359C5.50781 3.02083 6.02865 2.89062 6.54297 2.79297C7.05729 2.6888 7.55534 2.61393 8.03711 2.56836C8.52539 2.52279 8.97135 2.5 9.375 2.5ZM17.5 8.125C17.5 7.57812 17.3568 7.0931 17.0703 6.66992C16.7839 6.24023 16.4062 5.86263 15.9375 5.53711C15.4753 5.21159 14.9512 4.93815 14.3652 4.7168C13.7793 4.48893 13.1836 4.30339 12.5781 4.16016C11.9792 4.01693 11.3965 3.91276 10.8301 3.84766C10.2702 3.78255 9.78516 3.75 9.375 3.75C8.96484 3.75 8.47656 3.78255 7.91016 3.84766C7.35026 3.91276 6.76758 4.01693 6.16211 4.16016C5.56315 4.30339 4.9707 4.48893 4.38477 4.7168C3.79883 4.93815 3.27148 5.21159 2.80273 5.53711C2.34049 5.86263 1.96615 6.24023 1.67969 6.66992C1.39323 7.0931 1.25 7.57812 1.25 8.125V9.375C1.25 9.54427 1.31185 9.69076 1.43555 9.81445C1.55924 9.93815 1.70573 10 1.875 10H4.375C4.51172 10 4.6224 9.9707 4.70703 9.91211C4.79818 9.84701 4.86654 9.76237 4.91211 9.6582C4.95768 9.55404 4.98698 9.4401 5 9.31641C5.01953 9.1862 5.0293 9.05273 5.0293 8.91602C5.0293 8.76628 5.02279 8.62305 5.00977 8.48633C5.00326 8.3431 5 8.22266 5 8.125C5 7.86458 5.04883 7.62044 5.14648 7.39258C5.24414 7.16471 5.3776 6.96615 5.54688 6.79688C5.71615 6.6276 5.91471 6.49414 6.14258 6.39648C6.37044 6.29883 6.61458 6.25 6.875 6.25H11.875C12.1354 6.25 12.3796 6.29883 12.6074 6.39648C12.8353 6.49414 13.0339 6.6276 13.2031 6.79688C13.3724 6.96615 13.5059 7.16471 13.6035 7.39258C13.7012 7.62044 13.75 7.86458 13.75 8.125C13.75 8.22266 13.7435 8.3431 13.7305 8.48633C13.724 8.62305 13.7207 8.76628 13.7207 8.91602C13.7207 9.05273 13.7272 9.1862 13.7402 9.31641C13.7598 9.4401 13.7923 9.55404 13.8379 9.6582C13.8835 9.76237 13.9486 9.84701 14.0332 9.91211C14.1243 9.9707 14.2383 10 14.375 10H16.875C17.0443 10 17.1908 9.93815 17.3145 9.81445C17.4382 9.69076 17.5 9.54427 17.5 9.375V8.125ZM12.0605 14.5605L12.9395 15.4395L9.375 19.0039L5.81055 15.4395L6.68945 14.5605L8.75 16.6113V10H10V16.6113L12.0605 14.5605Z" transform="translate(88 8)" fill="white"/>
  <path d="M6.71289 15H1.20996V5.19727H6.49414V6.57812H2.83691V9.35352H6.20703V10.7275H2.83691V13.626H6.71289V15ZM14.5127 15H12.9268V11.0557C12.9268 9.74772 12.4642 9.09375 11.5391 9.09375C11.056 9.09375 10.6572 9.27604 10.3428 9.64062C10.0283 10.0007 9.87109 10.4564 9.87109 11.0078V15H8.27832V8H9.87109V9.16211H9.89844C10.4225 8.27799 11.179 7.83594 12.168 7.83594C12.929 7.83594 13.5101 8.08431 13.9111 8.58105C14.3122 9.07324 14.5127 9.78646 14.5127 10.7207V15ZM22.8184 15H21.2324V13.8105H21.2051C20.6947 14.7129 19.9085 15.1641 18.8467 15.1641C17.9854 15.1641 17.2949 14.8519 16.7754 14.2275C16.2604 13.5986 16.0029 12.7441 16.0029 11.6641C16.0029 10.5065 16.2878 9.5791 16.8574 8.88184C17.4316 8.18457 18.195 7.83594 19.1475 7.83594C20.0908 7.83594 20.7767 8.21419 21.2051 8.9707H21.2324V4.63672H22.8184V15ZM21.2529 11.8008V10.8848C21.2529 10.388 21.0911 9.96647 20.7676 9.62012C20.444 9.27376 20.0316 9.10059 19.5303 9.10059C18.9378 9.10059 18.4707 9.32161 18.1289 9.76367C17.7917 10.2057 17.623 10.8187 17.623 11.6025C17.623 12.3135 17.7848 12.8763 18.1084 13.291C18.4365 13.7012 18.8763 13.9062 19.4277 13.9062C19.9701 13.9062 20.4098 13.708 20.7471 13.3115C21.0843 12.9105 21.2529 12.4069 21.2529 11.8008Z" transform="translate(118 8)" fill="white"/>
</svg>
