<!--
	Copyright (c) Microsoft Corporation. All rights reserved.
	Licensed under the MIT license.
 -->

<svg width="82" height="55" viewBox="0 0 82 55" fill="none" xmlns="http://www.w3.org/2000/svg">
  <g id="Group 28">
    <rect id="Rectangle 31" x="0.5" y="0.5" width="81" height="54" stroke="#666666"/>
    <path id="&#238;&#169;&#168;" d="M11.9531 10.2109C12.1562 10.2109 12.3542 10.25 12.5469 10.3281C12.7396 10.4062 12.9089 10.5182 13.0547 10.6641L14.5469 12.1562C14.6927 12.3021 14.8047 12.4714 14.8828 12.6641C14.9609 12.8568 15 13.0547 15 13.2578C15 13.4609 14.9609 13.6589 14.8828 13.8516C14.8047 14.0443 14.6927 14.2135 14.5469 14.3594L13.7969 15.1094C13.474 15.4271 13.1016 15.6562 12.6797 15.7969C12.2578 15.9323 11.8255 16 11.3828 16C10.8151 16 10.2318 15.9115 9.63281 15.7344C9.03385 15.5573 8.4375 15.3125 7.84375 15C7.25 14.6875 6.66927 14.3151 6.10156 13.8828C5.53385 13.4505 4.99479 12.9792 4.48438 12.4688C3.97917 11.9583 3.51302 11.4193 3.08594 10.8516C2.65885 10.2839 2.29167 9.70573 1.98438 9.11719C1.67708 8.52344 1.4349 7.93229 1.25781 7.34375C1.08594 6.75 1 6.17708 1 5.625C1 5.22396 1.03385 4.88281 1.10156 4.60156C1.17448 4.32031 1.27865 4.0651 1.41406 3.83594C1.55469 3.60677 1.72656 3.38542 1.92969 3.17188C2.13281 2.95833 2.36979 2.71875 2.64062 2.45312C2.78646 2.30729 2.95573 2.19531 3.14844 2.11719C3.34115 2.03906 3.53906 2 3.74219 2C3.94531 2 4.14323 2.03906 4.33594 2.11719C4.52865 2.19531 4.69792 2.30729 4.84375 2.45312L6.33594 3.94531C6.48177 4.09115 6.59375 4.26042 6.67188 4.45312C6.75 4.64583 6.78906 4.84375 6.78906 5.04688C6.78906 5.25 6.75521 5.43229 6.6875 5.59375C6.61979 5.75 6.53385 5.89583 6.42969 6.03125C6.33073 6.16146 6.22135 6.28125 6.10156 6.39062C5.98698 6.49479 5.8776 6.59635 5.77344 6.69531C5.67448 6.79427 5.59115 6.89323 5.52344 6.99219C5.45573 7.08594 5.42188 7.1849 5.42188 7.28906C5.42188 7.4401 5.47656 7.57031 5.58594 7.67969L9.32031 11.4141C9.42969 11.5234 9.5599 11.5781 9.71094 11.5781C9.82031 11.5781 9.92188 11.5443 10.0156 11.4766C10.1146 11.4089 10.2109 11.3255 10.3047 11.2266C10.4036 11.1224 10.5052 11.013 10.6094 10.8984C10.7188 10.7786 10.8385 10.6693 10.9688 10.5703C11.099 10.4661 11.2422 10.3802 11.3984 10.3125C11.5599 10.2448 11.7448 10.2109 11.9531 10.2109ZM11.3828 15C11.7005 15 11.9661 14.9714 12.1797 14.9141C12.3984 14.8516 12.5938 14.763 12.7656 14.6484C12.9375 14.5339 13.1042 14.3932 13.2656 14.2266C13.4323 14.0599 13.6224 13.8698 13.8359 13.6562C13.9453 13.5469 14 13.4167 14 13.2656C14 13.1094 13.9453 12.9766 13.8359 12.8672L12.3438 11.375C12.2344 11.2656 12.1042 11.2109 11.9531 11.2109C11.8438 11.2109 11.7396 11.2448 11.6406 11.3125C11.5417 11.3802 11.4427 11.4661 11.3438 11.5703C11.25 11.6693 11.1484 11.7786 11.0391 11.8984C10.9349 12.013 10.8177 12.1224 10.6875 12.2266C10.5573 12.3255 10.4115 12.4089 10.25 12.4766C10.0938 12.5443 9.91406 12.5781 9.71094 12.5781C9.5026 12.5781 9.30208 12.5391 9.10938 12.4609C8.92188 12.3776 8.75521 12.263 8.60938 12.1172L4.88281 8.39062C4.73698 8.24479 4.6224 8.07812 4.53906 7.89062C4.46094 7.69792 4.42188 7.4974 4.42188 7.28906C4.42188 7.08594 4.45573 6.90625 4.52344 6.75C4.59115 6.58854 4.67448 6.44271 4.77344 6.3125C4.8776 6.18229 4.98698 6.0651 5.10156 5.96094C5.22135 5.85156 5.33073 5.7474 5.42969 5.64844C5.53385 5.54948 5.61979 5.45312 5.6875 5.35938C5.75521 5.26042 5.78906 5.15625 5.78906 5.04688C5.78906 4.89583 5.73438 4.76562 5.625 4.65625L4.13281 3.16406C4.02344 3.05469 3.89323 3 3.74219 3C3.58594 3 3.45312 3.05469 3.34375 3.16406C3.13021 3.3776 2.9401 3.5651 2.77344 3.72656C2.60677 3.88802 2.46615 4.05729 2.35156 4.23438C2.23698 4.40625 2.14844 4.59896 2.08594 4.8125C2.02865 5.02604 2 5.28906 2 5.60156C2 6.10156 2.08073 6.61979 2.24219 7.15625C2.40365 7.69271 2.6276 8.22917 2.91406 8.76562C3.20573 9.29688 3.54948 9.82031 3.94531 10.3359C4.34115 10.8516 4.77083 11.3411 5.23438 11.8047C5.69792 12.2682 6.1875 12.6953 6.70312 13.0859C7.22396 13.4766 7.75 13.8151 8.28125 14.1016C8.8125 14.3828 9.34115 14.6042 9.86719 14.7656C10.3932 14.9219 10.8984 15 11.3828 15ZM10 7H9V2H10V7ZM13 7H12V2H13V7Z" transform="translate(33 12)" fill="white"/>
    <path id="Hold" d="M7.41797 13H6.43359V9.16797H2.08594V13H1.10156V4.59766H2.08594V8.2832H6.43359V4.59766H7.41797V13ZM12 13.1406C11.1133 13.1406 10.4043 12.8613 9.87305 12.3027C9.3457 11.7402 9.08203 10.9961 9.08203 10.0703C9.08203 9.0625 9.35742 8.27539 9.9082 7.70898C10.459 7.14258 11.2031 6.85938 12.1406 6.85938C13.0352 6.85938 13.7324 7.13477 14.2324 7.68555C14.7363 8.23633 14.9883 9 14.9883 9.97656C14.9883 10.9336 14.7168 11.7012 14.1738 12.2793C13.6348 12.8535 12.9102 13.1406 12 13.1406ZM12.0703 7.66797C11.4531 7.66797 10.9648 7.87891 10.6055 8.30078C10.2461 8.71875 10.0664 9.29688 10.0664 10.0352C10.0664 10.7461 10.248 11.3066 10.6113 11.7168C10.9746 12.127 11.4609 12.332 12.0703 12.332C12.6914 12.332 13.168 12.1309 13.5 11.7285C13.8359 11.3262 14.0039 10.7539 14.0039 10.0117C14.0039 9.26172 13.8359 8.68359 13.5 8.27734C13.168 7.87109 12.6914 7.66797 12.0703 7.66797ZM17.4844 13H16.5234V4.11719H17.4844V13ZM24.5508 13H23.5898V11.9805H23.5664C23.1211 12.7539 22.4336 13.1406 21.5039 13.1406C20.75 13.1406 20.1465 12.873 19.6934 12.3379C19.2441 11.7988 19.0195 11.0664 19.0195 10.1406C19.0195 9.14844 19.2695 8.35352 19.7695 7.75586C20.2695 7.1582 20.9355 6.85938 21.7676 6.85938C22.5918 6.85938 23.1914 7.18359 23.5664 7.83203H23.5898V4.11719H24.5508V13ZM23.5898 10.2871V9.40234C23.5898 8.91797 23.4297 8.50781 23.1094 8.17188C22.7891 7.83594 22.3828 7.66797 21.8906 7.66797C21.3047 7.66797 20.8438 7.88281 20.5078 8.3125C20.1719 8.74219 20.0039 9.33594 20.0039 10.0938C20.0039 10.7852 20.1641 11.332 20.4844 11.7344C20.8086 12.1328 21.2422 12.332 21.7852 12.332C22.3203 12.332 22.7539 12.1387 23.0859 11.752C23.4219 11.3652 23.5898 10.877 23.5898 10.2871Z" transform="translate(28 34)" fill="#D8D8D8"/>
  </g>
</svg>
