<!--
	Copyright (c) Microsoft Corporation. All rights reserved.
	Licensed under the MIT license.
 -->

<svg width="87" height="24" viewBox="0 0 87 24" fill="none" xmlns="http://www.w3.org/2000/svg">
  <path d="M11.148 0.0271737C5.11729 0.397934 -0.124061 5.68127 0.00223629 11.8915C0.128534 18.1944 5.65405 23.5396 12.0637 23.4778C18.6943 23.416 24.0935 18.0709 23.9988 11.5825C24.0619 5.09424 18.2838 -0.436277 11.148 0.0271737ZM7.67481 3.5185C6.56971 5.49589 5.14886 6.91714 4.6121 8.86364C4.04376 10.9337 4.58052 12.8493 4.83312 15.0121C1.39151 10.9955 2.65448 5.65038 7.67481 3.5185ZM7.26435 19.9247C7.95898 19.3994 8.62204 19.8011 9.25353 19.8629C10.0745 20.0483 10.8638 20.0791 11.6848 19.8629C13.3582 19.7393 14.7791 18.8742 16.5788 18.1018C14.337 21.0678 10.8007 21.6858 7.26435 19.9247ZM12.0952 16.8968C9.06409 16.9277 6.69601 14.6413 6.69601 11.7061C6.69601 8.83274 9.15881 6.29921 12.0321 6.3301C14.8422 6.3301 17.4944 8.89453 17.526 11.6134C17.5576 14.4559 15.0632 16.8968 12.0952 16.8968ZM13.074 4.19823C19.01 3.02416 23.0831 8.33839 21.0308 15.1048C20.6519 8.83274 17.9681 5.34141 13.074 4.19823Z" transform="translate(23.4785) rotate(90)" fill="#315FA2"/>
  <path d="M7.88496 10.3765C7.10441 10.7922 6.13355 11 4.97236 11C3.46909 11 2.26455 10.5126 1.35873 9.53779C0.452909 8.56298 0 7.28385 0 5.7004C0 3.9982 0.508318 2.62258 1.52495 1.57355C2.54641 0.524516 3.83527 0 5.39155 0C6.39373 0 7.22487 0.145974 7.88496 0.437922V2.18961C7.18632 1.76406 6.41541 1.55128 5.57223 1.55128C4.44959 1.55128 3.53896 1.91993 2.84032 2.65722C2.1465 3.39451 1.79959 4.37922 1.79959 5.61134C1.79959 6.78408 2.12482 7.7193 2.77527 8.417C3.42573 9.10976 4.28096 9.45614 5.34096 9.45614C6.31905 9.45614 7.16705 9.21862 7.88496 8.74359V10.3765Z" transform="translate(32.2173 6)" fill="#315FA2"/>
  <path d="M12.944 11C11.8021 11 10.8891 10.6462 10.2049 9.9386C9.52555 9.22605 9.18587 8.2834 9.18587 7.11066C9.18587 5.83401 9.54 4.83693 10.2483 4.11943C10.9614 3.40193 11.9202 3.04318 13.1247 3.04318C14.2811 3.04318 15.1821 3.39204 15.8277 4.08974C16.4734 4.78745 16.7962 5.75484 16.7962 6.9919C16.7962 8.20423 16.4469 9.17656 15.7482 9.90891C15.0544 10.6363 14.1197 11 12.944 11ZM13.0235 4.41633C12.3683 4.41633 11.8503 4.65137 11.4697 5.12146C11.089 5.59154 10.8987 6.23977 10.8987 7.06613C10.8987 7.8628 11.0915 8.49123 11.4769 8.95142C11.8624 9.40666 12.3779 9.63428 13.0235 9.63428C13.6836 9.63428 14.1895 9.40913 14.5413 8.95884C14.8978 8.50855 15.0761 7.86775 15.0761 7.03644C15.0761 6.20018 14.8978 5.55443 14.5413 5.09919C14.1895 4.64395 13.6836 4.41633 13.0235 4.41633Z" transform="translate(32.2173 6)" fill="#315FA2"/>
  <path d="M25.1003 10.8219H23.4236V6.53914C23.4236 5.11898 22.9345 4.40891 21.9565 4.40891C21.4457 4.40891 21.0241 4.60684 20.6917 5.0027C20.3592 5.39361 20.193 5.88844 20.193 6.48718V10.8219H18.509V3.22132H20.193V4.48313H20.2219C20.776 3.52317 21.5758 3.04318 22.6214 3.04318C23.426 3.04318 24.0403 3.31287 24.4643 3.85223C24.8883 4.38664 25.1003 5.16104 25.1003 6.17544V10.8219Z" transform="translate(32.2173 6)" fill="#315FA2"/>
  <path d="M31.0556 10.7402C30.728 10.9085 30.2967 10.9926 29.7619 10.9926C28.3261 10.9926 27.6082 10.285 27.6082 8.86977V4.5722H26.3723V3.22132H27.6082V1.46221L29.2849 0.972335V3.22132H31.0556V4.5722H29.2849V8.37247C29.2849 8.82276 29.3644 9.1444 29.5234 9.33738C29.6824 9.53036 29.9474 9.62686 30.3184 9.62686C30.6027 9.62686 30.8484 9.54274 31.0556 9.37449V10.7402Z" transform="translate(32.2173 6)" fill="#315FA2"/>
  <path d="M35.6955 11C34.5536 11 33.6406 10.6462 32.9564 9.9386C32.277 9.22605 31.9373 8.2834 31.9373 7.11066C31.9373 5.83401 32.2915 4.83693 32.9997 4.11943C33.7128 3.40193 34.6716 3.04318 35.8762 3.04318C37.0326 3.04318 37.9336 3.39204 38.5792 4.08974C39.2248 4.78745 39.5476 5.75484 39.5476 6.9919C39.5476 8.20423 39.1983 9.17656 38.4997 9.90891C37.8059 10.6363 36.8711 11 35.6955 11ZM35.775 4.41633C35.1197 4.41633 34.6018 4.65137 34.2211 5.12146C33.8405 5.59154 33.6502 6.23977 33.6502 7.06613C33.6502 7.8628 33.8429 8.49123 34.2284 8.95142C34.6138 9.40666 35.1294 9.63428 35.775 9.63428C36.4351 9.63428 36.941 9.40913 37.2927 8.95884C37.6493 8.50855 37.8276 7.86775 37.8276 7.03644C37.8276 6.20018 37.6493 5.55443 37.2927 5.09919C36.941 4.64395 36.4351 4.41633 35.775 4.41633Z" transform="translate(32.2173 6)" fill="#315FA2"/>
  <path d="M40.798 10.5843V8.98853C41.4243 9.47841 42.1157 9.72335 42.8722 9.72335C43.884 9.72335 44.3899 9.41655 44.3899 8.80297C44.3899 8.62978 44.3466 8.48381 44.2598 8.36505C44.1731 8.24134 44.0551 8.13248 43.9057 8.03846C43.7611 7.94444 43.5877 7.86032 43.3853 7.7861C43.1878 7.71188 42.9661 7.62776 42.7204 7.53374C42.4169 7.41003 42.1422 7.2789 41.8965 7.14035C41.6556 7.0018 41.4532 6.84593 41.2894 6.67274C41.1304 6.4946 41.01 6.2942 40.9281 6.07152C40.8461 5.84885 40.8052 5.58907 40.8052 5.29217C40.8052 4.926 40.8895 4.60436 41.0581 4.32726C41.2268 4.04521 41.4532 3.81017 41.7375 3.62213C42.0218 3.42915 42.3446 3.28565 42.706 3.19163C43.0673 3.09267 43.4407 3.04318 43.8262 3.04318C44.5104 3.04318 45.1223 3.14957 45.6619 3.36235V4.8691C45.1416 4.50292 44.5441 4.31984 43.8696 4.31984C43.6576 4.31984 43.4648 4.34211 43.2914 4.38664C43.1227 4.43117 42.9782 4.49303 42.8577 4.5722C42.7373 4.65137 42.6433 4.74786 42.5759 4.86167C42.5084 4.97054 42.4747 5.09177 42.4747 5.22537C42.4747 5.38866 42.5084 5.52722 42.5759 5.64103C42.6433 5.75484 42.7421 5.85628 42.8722 5.94534C43.0071 6.02946 43.1661 6.10864 43.3492 6.18286C43.5371 6.25214 43.7515 6.32883 43.9924 6.41296C44.3104 6.54656 44.5947 6.68264 44.8452 6.82119C45.1006 6.95974 45.3174 7.11808 45.4957 7.29622C45.674 7.46941 45.8113 7.67229 45.9076 7.90486C46.004 8.13248 46.0522 8.40463 46.0522 8.72132C46.0522 9.10729 45.9655 9.44377 45.792 9.73077C45.6186 10.0178 45.3873 10.2553 45.0982 10.4433C44.8091 10.6314 44.4742 10.7699 44.0936 10.859C43.7178 10.953 43.3203 11 42.9011 11C42.0916 11 41.3906 10.8614 40.798 10.5843Z" transform="translate(32.2173 6)" fill="#315FA2"/>
  <path d="M50.9306 11C49.7887 11 48.8756 10.6462 48.1915 9.9386C47.5121 9.22605 47.1724 8.2834 47.1724 7.11066C47.1724 5.83401 47.5266 4.83693 48.2348 4.11943C48.9479 3.40193 49.9067 3.04318 51.1113 3.04318C52.2676 3.04318 53.1686 3.39204 53.8143 4.08974C54.4599 4.78745 54.7827 5.75484 54.7827 6.9919C54.7827 8.20423 54.4334 9.17656 53.7348 9.90891C53.041 10.6363 52.1062 11 50.9306 11ZM51.0101 4.41633C50.3548 4.41633 49.8369 4.65137 49.4562 5.12146C49.0756 5.59154 48.8853 6.23977 48.8853 7.06613C48.8853 7.8628 49.078 8.49123 49.4635 8.95142C49.8489 9.40666 50.3645 9.63428 51.0101 9.63428C51.6702 9.63428 52.1761 9.40913 52.5278 8.95884C52.8844 8.50855 53.0626 7.86775 53.0626 7.03644C53.0626 6.20018 52.8844 5.55443 52.5278 5.09919C52.1761 4.64395 51.6702 4.41633 51.0101 4.41633Z" transform="translate(32.2173 6)" fill="#315FA2"/>
</svg>
