<!--
	Copyright (c) Microsoft Corporation. All rights reserved.
	Licensed under the MIT license.
 -->

<svg width="243" height="55" viewBox="0 0 243 55" fill="none" xmlns="http://www.w3.org/2000/svg">
  <path d="M0.5 0.5H242.5V54.5H0.5V0.5Z" stroke="#666666"/>
  <path d="M11.9531 10.2109C12.1562 10.2109 12.3542 10.25 12.5469 10.3281C12.7396 10.4062 12.9089 10.5182 13.0547 10.6641L14.5469 12.1562C14.6927 12.3021 14.8047 12.4714 14.8828 12.6641C14.9609 12.8568 15 13.0547 15 13.2578C15 13.4609 14.9609 13.6589 14.8828 13.8516C14.8047 14.0443 14.6927 14.2135 14.5469 14.3594L13.7969 15.1094C13.474 15.4271 13.1016 15.6562 12.6797 15.7969C12.2578 15.9323 11.8255 16 11.3828 16C10.8151 16 10.2318 15.9115 9.63281 15.7344C9.03385 15.5573 8.4375 15.3125 7.84375 15C7.25 14.6875 6.66927 14.3151 6.10156 13.8828C5.53385 13.4505 4.99479 12.9792 4.48438 12.4688C3.97917 11.9583 3.51302 11.4193 3.08594 10.8516C2.65885 10.2839 2.29167 9.70573 1.98438 9.11719C1.67708 8.52344 1.4349 7.93229 1.25781 7.34375C1.08594 6.75 1 6.17708 1 5.625C1 5.22396 1.03385 4.88281 1.10156 4.60156C1.17448 4.32031 1.27865 4.0651 1.41406 3.83594C1.55469 3.60677 1.72656 3.38542 1.92969 3.17188C2.13281 2.95833 2.36979 2.71875 2.64062 2.45312C2.78646 2.30729 2.95573 2.19531 3.14844 2.11719C3.34115 2.03906 3.53906 2 3.74219 2C3.94531 2 4.14323 2.03906 4.33594 2.11719C4.52865 2.19531 4.69792 2.30729 4.84375 2.45312L6.33594 3.94531C6.48177 4.09115 6.59375 4.26042 6.67188 4.45312C6.75 4.64583 6.78906 4.84375 6.78906 5.04688C6.78906 5.25 6.75521 5.43229 6.6875 5.59375C6.61979 5.75 6.53385 5.89583 6.42969 6.03125C6.33073 6.16146 6.22135 6.28125 6.10156 6.39062C5.98698 6.49479 5.8776 6.59635 5.77344 6.69531C5.67448 6.79427 5.59115 6.89323 5.52344 6.99219C5.45573 7.08594 5.42188 7.1849 5.42188 7.28906C5.42188 7.4401 5.47656 7.57031 5.58594 7.67969L9.32031 11.4141C9.42969 11.5234 9.5599 11.5781 9.71094 11.5781C9.82031 11.5781 9.92188 11.5443 10.0156 11.4766C10.1146 11.4089 10.2109 11.3255 10.3047 11.2266C10.4036 11.1224 10.5052 11.013 10.6094 10.8984C10.7188 10.7786 10.8385 10.6693 10.9688 10.5703C11.099 10.4661 11.2422 10.3802 11.3984 10.3125C11.5599 10.2448 11.7448 10.2109 11.9531 10.2109ZM11.3828 15C11.7005 15 11.9661 14.9714 12.1797 14.9141C12.3984 14.8516 12.5938 14.763 12.7656 14.6484C12.9375 14.5339 13.1042 14.3932 13.2656 14.2266C13.4323 14.0599 13.6224 13.8698 13.8359 13.6562C13.9453 13.5469 14 13.4167 14 13.2656C14 13.1094 13.9453 12.9766 13.8359 12.8672L12.3438 11.375C12.2344 11.2656 12.1042 11.2109 11.9531 11.2109C11.8438 11.2109 11.7396 11.2448 11.6406 11.3125C11.5417 11.3802 11.4427 11.4661 11.3438 11.5703C11.25 11.6693 11.1484 11.7786 11.0391 11.8984C10.9349 12.013 10.8177 12.1224 10.6875 12.2266C10.5573 12.3255 10.4115 12.4089 10.25 12.4766C10.0938 12.5443 9.91406 12.5781 9.71094 12.5781C9.5026 12.5781 9.30208 12.5391 9.10938 12.4609C8.92188 12.3776 8.75521 12.263 8.60938 12.1172L4.88281 8.39062C4.73698 8.24479 4.6224 8.07812 4.53906 7.89062C4.46094 7.69792 4.42188 7.4974 4.42188 7.28906C4.42188 7.08594 4.45573 6.90625 4.52344 6.75C4.59115 6.58854 4.67448 6.44271 4.77344 6.3125C4.8776 6.18229 4.98698 6.0651 5.10156 5.96094C5.22135 5.85156 5.33073 5.7474 5.42969 5.64844C5.53385 5.54948 5.61979 5.45312 5.6875 5.35938C5.75521 5.26042 5.78906 5.15625 5.78906 5.04688C5.78906 4.89583 5.73438 4.76562 5.625 4.65625L4.13281 3.16406C4.02344 3.05469 3.89323 3 3.74219 3C3.58594 3 3.45312 3.05469 3.34375 3.16406C3.13021 3.3776 2.9401 3.5651 2.77344 3.72656C2.60677 3.88802 2.46615 4.05729 2.35156 4.23438C2.23698 4.40625 2.14844 4.59896 2.08594 4.8125C2.02865 5.02604 2 5.28906 2 5.60156C2 6.10156 2.08073 6.61979 2.24219 7.15625C2.40365 7.69271 2.6276 8.22917 2.91406 8.76562C3.20573 9.29688 3.54948 9.82031 3.94531 10.3359C4.34115 10.8516 4.77083 11.3411 5.23438 11.8047C5.69792 12.2682 6.1875 12.6953 6.70312 13.0859C7.22396 13.4766 7.75 13.8151 8.28125 14.1016C8.8125 14.3828 9.34115 14.6042 9.86719 14.7656C10.3932 14.9219 10.8984 15 11.3828 15ZM10 7H9V2H10V7ZM13 7H12V2H13V7Z" transform="translate(22 12)" fill="white"/>
  <path d="M5.5 12C5.29167 12 5.09635 11.9609 4.91406 11.8828C4.73177 11.8047 4.57292 11.6979 4.4375 11.5625C4.30208 11.4271 4.19531 11.2682 4.11719 11.0859C4.03906 10.9036 4 10.7083 4 10.5V1.5C4 1.29167 4.03906 1.09635 4.11719 0.914062C4.19531 0.731771 4.30208 0.572917 4.4375 0.4375C4.57292 0.302083 4.73177 0.195312 4.91406 0.117188C5.09635 0.0390625 5.29167 0 5.5 0H9.5C9.70833 0 9.90365 0.0390625 10.0859 0.117188C10.2682 0.195312 10.4271 0.302083 10.5625 0.4375C10.6979 0.572917 10.8047 0.731771 10.8828 0.914062C10.9609 1.09635 11 1.29167 11 1.5V10.5C11 10.7083 10.9609 10.9036 10.8828 11.0859C10.8047 11.2682 10.6979 11.4271 10.5625 11.5625C10.4271 11.6979 10.2682 11.8047 10.0859 11.8828C9.90365 11.9609 9.70833 12 9.5 12H5.5ZM5 10.5C5 10.6354 5.04948 10.7526 5.14844 10.8516C5.2474 10.9505 5.36458 11 5.5 11H9.5C9.63542 11 9.7526 10.9505 9.85156 10.8516C9.95052 10.7526 10 10.6354 10 10.5V1.5C10 1.36458 9.95052 1.2474 9.85156 1.14844C9.7526 1.04948 9.63542 1 9.5 1H5.5C5.36458 1 5.2474 1.04948 5.14844 1.14844C5.04948 1.2474 5 1.36458 5 1.5V10.5ZM13 8V10.8281C13 11.2656 12.9167 11.6771 12.75 12.0625C12.5833 12.4479 12.3568 12.7839 12.0703 13.0703C11.7839 13.3568 11.4479 13.5833 11.0625 13.75C10.6771 13.9167 10.2656 14 9.82812 14H8V15H10V16H5V15H7V14H5.17188C4.73438 14 4.32292 13.9167 3.9375 13.75C3.55208 13.5833 3.21615 13.3568 2.92969 13.0703C2.64323 12.7839 2.41667 12.4479 2.25 12.0625C2.08333 11.6771 2 11.2656 2 10.8281V8H3V10.8281C3 11.125 3.05729 11.4062 3.17188 11.6719C3.28646 11.9375 3.4401 12.1693 3.63281 12.3672C3.83073 12.5599 4.0625 12.7135 4.32812 12.8281C4.59375 12.9427 4.875 13 5.17188 13H9.82812C10.125 13 10.4062 12.9427 10.6719 12.8281C10.9375 12.7135 11.1667 12.5599 11.3594 12.3672C11.5573 12.1693 11.7135 11.9375 11.8281 11.6719C11.9427 11.4062 12 11.125 12 10.8281V8H13Z" transform="translate(83 12)" fill="white"/>
  <path d="M5 3H3V1H5V3ZM9 3H7V1H9V3ZM13 3H11V1H13V3ZM5 7H3V5H5V7ZM9 7H7V5H9V7ZM13 7H11V5H13V7ZM5 11H3V9H5V11ZM9 11H7V9H9V11ZM9 15H7V13H9V15ZM13 11H11V9H13V11Z" transform="translate(144 12)" fill="white"/>
  <path d="M2 7C2.14062 7 2.27083 7.02604 2.39062 7.07812C2.51042 7.13021 2.61458 7.20312 2.70312 7.29688C2.79688 7.38542 2.86979 7.48958 2.92188 7.60938C2.97396 7.72917 3 7.85938 3 8C3 8.14062 2.97396 8.27083 2.92188 8.39062C2.86979 8.51042 2.79688 8.61719 2.70312 8.71094C2.61458 8.79948 2.51042 8.86979 2.39062 8.92188C2.27083 8.97396 2.14062 9 2 9C1.85938 9 1.72917 8.97396 1.60938 8.92188C1.48958 8.86979 1.38281 8.79948 1.28906 8.71094C1.20052 8.61719 1.13021 8.51042 1.07812 8.39062C1.02604 8.27083 1 8.14062 1 8C1 7.85938 1.02604 7.72917 1.07812 7.60938C1.13021 7.48958 1.20052 7.38542 1.28906 7.29688C1.38281 7.20312 1.48958 7.13021 1.60938 7.07812C1.72917 7.02604 1.85938 7 2 7ZM8 7C8.14062 7 8.27083 7.02604 8.39062 7.07812C8.51042 7.13021 8.61458 7.20312 8.70312 7.29688C8.79688 7.38542 8.86979 7.48958 8.92188 7.60938C8.97396 7.72917 9 7.85938 9 8C9 8.14062 8.97396 8.27083 8.92188 8.39062C8.86979 8.51042 8.79688 8.61719 8.70312 8.71094C8.61458 8.79948 8.51042 8.86979 8.39062 8.92188C8.27083 8.97396 8.14062 9 8 9C7.85938 9 7.72917 8.97396 7.60938 8.92188C7.48958 8.86979 7.38281 8.79948 7.28906 8.71094C7.20052 8.61719 7.13021 8.51042 7.07812 8.39062C7.02604 8.27083 7 8.14062 7 8C7 7.85938 7.02604 7.72917 7.07812 7.60938C7.13021 7.48958 7.20052 7.38542 7.28906 7.29688C7.38281 7.20312 7.48958 7.13021 7.60938 7.07812C7.72917 7.02604 7.85938 7 8 7ZM14 7C14.1406 7 14.2708 7.02604 14.3906 7.07812C14.5104 7.13021 14.6146 7.20312 14.7031 7.29688C14.7969 7.38542 14.8698 7.48958 14.9219 7.60938C14.974 7.72917 15 7.85938 15 8C15 8.14062 14.974 8.27083 14.9219 8.39062C14.8698 8.51042 14.7969 8.61719 14.7031 8.71094C14.6146 8.79948 14.5104 8.86979 14.3906 8.92188C14.2708 8.97396 14.1406 9 14 9C13.8594 9 13.7292 8.97396 13.6094 8.92188C13.4896 8.86979 13.3828 8.79948 13.2891 8.71094C13.2005 8.61719 13.1302 8.51042 13.0781 8.39062C13.026 8.27083 13 8.14062 13 8C13 7.85938 13.026 7.72917 13.0781 7.60938C13.1302 7.48958 13.2005 7.38542 13.2891 7.29688C13.3828 7.20312 13.4896 7.13021 13.6094 7.07812C13.7292 7.02604 13.8594 7 14 7Z" transform="translate(205 12)" fill="white"/>
  <path d="M0 0H1V53H0V0Z" transform="translate(60 1)" fill="#666666"/>
  <path d="M0 0H1V53H0V0Z" transform="translate(60 1)" stroke="#666666"/>
  <path d="M0 0H1V53H0V0Z" transform="translate(121 1)" fill="#666666"/>
  <path d="M0 0H1V53H0V0Z" transform="translate(121 1)" stroke="#666666"/>
  <path d="M0 0H1V53H0V0Z" transform="translate(182 1)" fill="#666666"/>
  <path d="M0 0H1V53H0V0Z" transform="translate(182 1)" stroke="#666666"/>
  <path d="M10.2738 13H9.29532V7.36328C9.29532 6.91797 9.32267 6.37305 9.37735 5.72852H9.35392C9.26017 6.10742 9.17618 6.37891 9.10196 6.54297L6.23087 13H5.7504L2.88517 6.58984C2.80314 6.40234 2.71915 6.11523 2.63321 5.72852H2.60978C2.64103 6.06445 2.65665 6.61328 2.65665 7.375V13H1.70743V4.59766H3.00821L5.58634 10.457C5.78556 10.9062 5.91446 11.2422 5.97306 11.4648H6.00821C6.17618 11.0039 6.31095 10.6602 6.41251 10.4336L9.04337 4.59766H10.2738V13ZM14.8676 13.1406C13.9809 13.1406 13.2719 12.8613 12.7406 12.3027C12.2133 11.7402 11.9496 10.9961 11.9496 10.0703C11.9496 9.0625 12.225 8.27539 12.7758 7.70898C13.3266 7.14258 14.0707 6.85938 15.0082 6.85938C15.9027 6.85938 16.6 7.13477 17.1 7.68555C17.6039 8.23633 17.8559 9 17.8559 9.97656C17.8559 10.9336 17.5844 11.7012 17.0414 12.2793C16.5024 12.8535 15.7777 13.1406 14.8676 13.1406ZM14.9379 7.66797C14.3207 7.66797 13.8324 7.87891 13.4731 8.30078C13.1137 8.71875 12.934 9.29688 12.934 10.0352C12.934 10.7461 13.1156 11.3066 13.4789 11.7168C13.8422 12.127 14.3285 12.332 14.9379 12.332C15.559 12.332 16.0356 12.1309 16.3676 11.7285C16.7035 11.3262 16.8715 10.7539 16.8715 10.0117C16.8715 9.26172 16.7035 8.68359 16.3676 8.27734C16.0356 7.87109 15.559 7.66797 14.9379 7.66797ZM22.5199 7.97266C22.352 7.84375 22.1098 7.7793 21.7934 7.7793C21.3832 7.7793 21.0395 7.97266 20.7621 8.35938C20.4887 8.74609 20.352 9.27344 20.352 9.94141V13H19.391V7H20.352V8.23633H20.3754C20.5121 7.81445 20.7211 7.48633 21.0024 7.25195C21.2836 7.01367 21.5981 6.89453 21.9457 6.89453C22.1957 6.89453 22.3871 6.92188 22.5199 6.97656V7.97266ZM28.3852 10.2402H24.1488C24.1645 10.9082 24.3442 11.4238 24.6879 11.7871C25.0317 12.1504 25.5043 12.332 26.1059 12.332C26.7817 12.332 27.4027 12.1094 27.9692 11.6641V12.5664C27.4418 12.9492 26.7445 13.1406 25.8774 13.1406C25.0297 13.1406 24.3637 12.8691 23.8793 12.3262C23.3949 11.7793 23.1527 11.0117 23.1527 10.0234C23.1527 9.08984 23.4164 8.33008 23.9438 7.74414C24.475 7.1543 25.1332 6.85938 25.9184 6.85938C26.7035 6.85938 27.3109 7.11328 27.7406 7.62109C28.1703 8.12891 28.3852 8.83398 28.3852 9.73633V10.2402ZM27.4008 9.42578C27.3969 8.87109 27.2621 8.43945 26.9965 8.13086C26.7348 7.82227 26.3695 7.66797 25.9008 7.66797C25.4477 7.66797 25.0629 7.83008 24.7465 8.1543C24.4301 8.47852 24.2348 8.90234 24.1606 9.42578H27.4008Z" transform="translate(198 35)" fill="#D8D8D8"/>
  <path d="M7.41797 13H6.43359V9.16797H2.08594V13H1.10156V4.59766H2.08594V8.2832H6.43359V4.59766H7.41797V13ZM12 13.1406C11.1133 13.1406 10.4043 12.8613 9.87305 12.3027C9.3457 11.7402 9.08203 10.9961 9.08203 10.0703C9.08203 9.0625 9.35742 8.27539 9.9082 7.70898C10.459 7.14258 11.2031 6.85938 12.1406 6.85938C13.0352 6.85938 13.7324 7.13477 14.2324 7.68555C14.7363 8.23633 14.9883 9 14.9883 9.97656C14.9883 10.9336 14.7168 11.7012 14.1738 12.2793C13.6348 12.8535 12.9102 13.1406 12 13.1406ZM12.0703 7.66797C11.4531 7.66797 10.9648 7.87891 10.6055 8.30078C10.2461 8.71875 10.0664 9.29688 10.0664 10.0352C10.0664 10.7461 10.248 11.3066 10.6113 11.7168C10.9746 12.127 11.4609 12.332 12.0703 12.332C12.6914 12.332 13.168 12.1309 13.5 11.7285C13.8359 11.3262 14.0039 10.7539 14.0039 10.0117C14.0039 9.26172 13.8359 8.68359 13.5 8.27734C13.168 7.87109 12.6914 7.66797 12.0703 7.66797ZM17.4844 13H16.5234V4.11719H17.4844V13ZM24.5508 13H23.5898V11.9805H23.5664C23.1211 12.7539 22.4336 13.1406 21.5039 13.1406C20.75 13.1406 20.1465 12.873 19.6934 12.3379C19.2441 11.7988 19.0195 11.0664 19.0195 10.1406C19.0195 9.14844 19.2695 8.35352 19.7695 7.75586C20.2695 7.1582 20.9355 6.85938 21.7676 6.85938C22.5918 6.85938 23.1914 7.18359 23.5664 7.83203H23.5898V4.11719H24.5508V13ZM23.5898 10.2871V9.40234C23.5898 8.91797 23.4297 8.50781 23.1094 8.17188C22.7891 7.83594 22.3828 7.66797 21.8906 7.66797C21.3047 7.66797 20.8438 7.88281 20.5078 8.3125C20.1719 8.74219 20.0039 9.33594 20.0039 10.0938C20.0039 10.7852 20.1641 11.332 20.4844 11.7344C20.8086 12.1328 21.2422 12.332 21.7852 12.332C22.3203 12.332 22.7539 12.1387 23.0859 11.752C23.4219 11.3652 23.5898 10.877 23.5898 10.2871Z" transform="translate(17 35)" fill="#D8D8D8"/>
  <path d="M9.66797 13H8.68945V7.36328C8.68945 6.91797 8.7168 6.37305 8.77148 5.72852H8.74805C8.6543 6.10742 8.57031 6.37891 8.49609 6.54297L5.625 13H5.14453L2.2793 6.58984C2.19727 6.40234 2.11328 6.11523 2.02734 5.72852H2.00391C2.03516 6.06445 2.05078 6.61328 2.05078 7.375V13H1.10156V4.59766H2.40234L4.98047 10.457C5.17969 10.9062 5.30859 11.2422 5.36719 11.4648H5.40234C5.57031 11.0039 5.70508 10.6602 5.80664 10.4336L8.4375 4.59766H9.66797V13ZM16.6055 13H15.6445V12.0508H15.6211C15.2227 12.7773 14.6055 13.1406 13.7695 13.1406C12.3398 13.1406 11.625 12.2891 11.625 10.5859V7H12.5801V10.4336C12.5801 11.6992 13.0645 12.332 14.0332 12.332C14.502 12.332 14.8867 12.1602 15.1875 11.8164C15.4922 11.4688 15.6445 11.0156 15.6445 10.457V7H16.6055V13ZM21.334 12.9414C21.1074 13.0664 20.8086 13.1289 20.4375 13.1289C19.3867 13.1289 18.8613 12.543 18.8613 11.3711V7.82031H17.8301V7H18.8613V5.53516L19.8223 5.22461V7H21.334V7.82031H19.8223V11.2012C19.8223 11.6035 19.8906 11.8906 20.0273 12.0625C20.1641 12.2344 20.3906 12.3203 20.707 12.3203C20.9492 12.3203 21.1582 12.2539 21.334 12.1211V12.9414ZM27.4395 10.2402H23.2031C23.2188 10.9082 23.3984 11.4238 23.7422 11.7871C24.0859 12.1504 24.5586 12.332 25.1602 12.332C25.8359 12.332 26.457 12.1094 27.0234 11.6641V12.5664C26.4961 12.9492 25.7988 13.1406 24.9316 13.1406C24.084 13.1406 23.418 12.8691 22.9336 12.3262C22.4492 11.7793 22.207 11.0117 22.207 10.0234C22.207 9.08984 22.4707 8.33008 22.998 7.74414C23.5293 7.1543 24.1875 6.85938 24.9727 6.85938C25.7578 6.85938 26.3652 7.11328 26.7949 7.62109C27.2246 8.12891 27.4395 8.83398 27.4395 9.73633V10.2402ZM26.4551 9.42578C26.4512 8.87109 26.3164 8.43945 26.0508 8.13086C25.7891 7.82227 25.4238 7.66797 24.9551 7.66797C24.502 7.66797 24.1172 7.83008 23.8008 8.1543C23.4844 8.47852 23.2891 8.90234 23.2148 9.42578H26.4551Z" transform="translate(77 35)" fill="#D8D8D8"/>
  <path d="M1.90706 13V4.59766H4.22738C7.18831 4.59766 8.66878 5.96289 8.66878 8.69336C8.66878 9.99023 8.25667 11.0332 7.43245 11.8223C6.61214 12.6074 5.51253 13 4.13363 13H1.90706ZM2.89144 5.48828V12.1094H4.14534C5.24691 12.1094 6.10433 11.8145 6.71761 11.2246C7.33089 10.6348 7.63753 9.79883 7.63753 8.7168C7.63753 6.56445 6.493 5.48828 4.20394 5.48828H2.89144ZM10.6844 5.47656C10.5125 5.47656 10.366 5.41797 10.245 5.30078C10.1239 5.18359 10.0633 5.03516 10.0633 4.85547C10.0633 4.67578 10.1239 4.52734 10.245 4.41016C10.366 4.28906 10.5125 4.22852 10.6844 4.22852C10.8602 4.22852 11.0086 4.28906 11.1297 4.41016C11.2547 4.52734 11.3172 4.67578 11.3172 4.85547C11.3172 5.02734 11.2547 5.17383 11.1297 5.29492C11.0086 5.41602 10.8602 5.47656 10.6844 5.47656ZM11.1532 13H10.1922V7H11.1532V13ZM17.3934 13H16.4325V12.0625H16.409C15.991 12.7812 15.3758 13.1406 14.5633 13.1406C13.9657 13.1406 13.4969 12.9824 13.1571 12.666C12.8211 12.3496 12.6532 11.9297 12.6532 11.4062C12.6532 10.2852 13.3133 9.63281 14.6336 9.44922L16.4325 9.19727C16.4325 8.17773 16.0203 7.66797 15.1961 7.66797C14.4735 7.66797 13.8211 7.91406 13.2391 8.40625V7.42188C13.8289 7.04688 14.5086 6.85938 15.2782 6.85938C16.6883 6.85938 17.3934 7.60547 17.3934 9.09766V13ZM16.4325 9.96484L14.9852 10.1641C14.5399 10.2266 14.2039 10.3379 13.9774 10.498C13.7508 10.6543 13.6375 10.9336 13.6375 11.3359C13.6375 11.6289 13.741 11.8691 13.9481 12.0566C14.159 12.2402 14.4383 12.332 14.786 12.332C15.2625 12.332 15.6551 12.166 15.9637 11.834C16.2762 11.498 16.4325 11.0742 16.4325 10.5625V9.96484ZM20.1649 13H19.2039V4.11719H20.1649V13ZM26.5164 9.82422V13H25.5321V4.59766H27.8407C28.7391 4.59766 29.4344 4.81641 29.9266 5.25391C30.4227 5.69141 30.6707 6.30859 30.6707 7.10547C30.6707 7.90234 30.3953 8.55469 29.8446 9.0625C29.2977 9.57031 28.5575 9.82422 27.6239 9.82422H26.5164ZM26.5164 5.48828V8.93359H27.5477C28.2274 8.93359 28.745 8.7793 29.1004 8.4707C29.4598 8.1582 29.6395 7.71875 29.6395 7.15234C29.6395 6.04297 28.9832 5.48828 27.6707 5.48828H26.5164ZM36.0145 13H35.0535V12.0625H35.0301C34.6121 12.7812 33.9969 13.1406 33.1844 13.1406C32.5868 13.1406 32.118 12.9824 31.7782 12.666C31.4422 12.3496 31.2743 11.9297 31.2743 11.4062C31.2743 10.2852 31.9344 9.63281 33.2547 9.44922L35.0535 9.19727C35.0535 8.17773 34.6414 7.66797 33.8172 7.66797C33.0946 7.66797 32.4422 7.91406 31.8602 8.40625V7.42188C32.45 7.04688 33.1297 6.85938 33.8993 6.85938C35.3094 6.85938 36.0145 7.60547 36.0145 9.09766V13ZM35.0535 9.96484L33.6063 10.1641C33.161 10.2266 32.825 10.3379 32.5985 10.498C32.3719 10.6543 32.2586 10.9336 32.2586 11.3359C32.2586 11.6289 32.3621 11.8691 32.5692 12.0566C32.7801 12.2402 33.0594 12.332 33.4071 12.332C33.8836 12.332 34.2762 12.166 34.5848 11.834C34.8973 11.498 35.0535 11.0742 35.0535 10.5625V9.96484ZM42.9461 13H41.9852V11.9805H41.9618C41.5164 12.7539 40.8289 13.1406 39.8993 13.1406C39.1453 13.1406 38.5418 12.873 38.0887 12.3379C37.6395 11.7988 37.4149 11.0664 37.4149 10.1406C37.4149 9.14844 37.6649 8.35352 38.1649 7.75586C38.6649 7.1582 39.3309 6.85938 40.1629 6.85938C40.9871 6.85938 41.5868 7.18359 41.9618 7.83203H41.9852V4.11719H42.9461V13ZM41.9852 10.2871V9.40234C41.9852 8.91797 41.825 8.50781 41.5047 8.17188C41.1844 7.83594 40.7782 7.66797 40.286 7.66797C39.7 7.66797 39.2391 7.88281 38.9032 8.3125C38.5672 8.74219 38.3993 9.33594 38.3993 10.0938C38.3993 10.7852 38.5594 11.332 38.8797 11.7344C39.2039 12.1328 39.6375 12.332 40.1805 12.332C40.7157 12.332 41.1493 12.1387 41.4813 11.752C41.8172 11.3652 41.9852 10.877 41.9852 10.2871Z" transform="translate(130 35)" fill="#D8D8D8"/>
</svg>
