<!--
	Copyright (c) Microsoft Corporation. All rights reserved.
	Licensed under the MIT license.
 -->

<svg width="35" height="103" viewBox="0 0 35 103" fill="none" xmlns="http://www.w3.org/2000/svg">
  <path fill-rule="evenodd" clip-rule="evenodd" d="M0 0H103V35H0V0Z" transform="translate(0 103) rotate(-90)" fill="#315FA2"/>
  <path d="M11.148 0.0274722C5.11729 0.402306 -0.124061 5.74369 0.00223629 12.0222C0.128534 18.3943 5.65405 23.7982 12.0637 23.7357C18.6943 23.6733 24.0935 18.2694 23.9988 11.7098C24.0619 5.1502 18.2838 -0.44107 11.148 0.0274722ZM7.67481 3.55716C6.56971 5.55627 5.14886 6.99314 4.6121 8.96102C4.04376 11.0538 4.58052 12.9905 4.83312 15.177C1.39151 11.1163 2.65448 5.71246 7.67481 3.55716ZM7.26435 20.1436C7.95898 19.6126 8.62204 20.0186 9.25353 20.0811C10.0745 20.2685 10.8638 20.2997 11.6848 20.0811C13.3582 19.9562 14.7791 19.0815 16.5788 18.3006C14.337 21.2993 10.8007 21.924 7.26435 20.1436ZM12.0952 17.0824C9.06409 17.1137 6.69601 14.8022 6.69601 11.8347C6.69601 8.92978 9.15881 6.36841 12.0321 6.39965C14.8422 6.39965 17.4944 8.99225 17.526 11.741C17.5576 14.6148 15.0632 17.0824 12.0952 17.0824ZM13.074 4.24436C19.01 3.05738 23.0831 8.43 21.0308 15.2707C20.6519 8.92978 17.9681 5.40009 13.074 4.24436Z" transform="translate(6 72.3184)" fill="white"/>
  <path d="M7.97159 10.3765C7.18246 10.7922 6.20093 11 5.02699 11C3.50721 11 2.28943 10.5126 1.37366 9.53779C0.457885 8.56298 0 7.28385 0 5.7004C0 3.9982 0.513903 2.62258 1.54171 1.57355C2.57439 0.524516 3.87741 0 5.45078 0C6.46397 0 7.30424 0.145974 7.97159 0.437922V2.18961C7.26527 1.76406 6.48589 1.55128 5.63345 1.55128C4.49848 1.55128 3.57784 1.91993 2.87152 2.65722C2.17008 3.39451 1.81936 4.37922 1.81936 5.61134C1.81936 6.78408 2.14816 7.7193 2.80576 8.417C3.46337 9.10976 4.32799 9.45614 5.39963 9.45614C6.38847 9.45614 7.24579 9.21862 7.97159 8.74359V10.3765Z" transform="translate(12 63.4834) rotate(-90)" fill="white"/>
  <path d="M13.0863 11C11.9318 11 11.0087 10.6462 10.317 9.9386C9.6302 9.22605 9.28679 8.2834 9.28679 7.11066C9.28679 5.83401 9.64481 4.83693 10.3609 4.11943C11.0818 3.40193 12.0511 3.04318 13.2689 3.04318C14.438 3.04318 15.3489 3.39204 16.0016 4.08974C16.6544 4.78745 16.9807 5.75484 16.9807 6.9919C16.9807 8.20423 16.6276 9.17656 15.9213 9.90891C15.2198 10.6363 14.2748 11 13.0863 11ZM13.1666 4.41633C12.5042 4.41633 11.9805 4.65137 11.5957 5.12146C11.2109 5.59154 11.0185 6.23977 11.0185 7.06613C11.0185 7.8628 11.2133 8.49123 11.603 8.95142C11.9927 9.40666 12.5139 9.63428 13.1666 9.63428C13.834 9.63428 14.3454 9.40913 14.701 8.95884C15.0615 8.50855 15.2417 7.86775 15.2417 7.03644C15.2417 6.20018 15.0615 5.55443 14.701 5.09919C14.3454 4.64395 13.834 4.41633 13.1666 4.41633Z" transform="translate(12 63.4834) rotate(-90)" fill="white"/>
  <path d="M25.3761 10.8219H23.6809V6.53914C23.6809 5.11898 23.1865 4.40891 22.1977 4.40891C21.6813 4.40891 21.2551 4.60684 20.919 5.0027C20.5829 5.39361 20.4149 5.88844 20.4149 6.48718V10.8219H18.7124V3.22132H20.4149V4.48313H20.4441C21.0043 3.52317 21.8129 3.04318 22.8699 3.04318C23.6834 3.04318 24.3044 3.31287 24.7331 3.85223C25.1618 4.38664 25.3761 5.16104 25.3761 6.17544V10.8219Z" transform="translate(12 63.4834) rotate(-90)" fill="white"/>
  <path d="M31.3968 10.7402C31.0656 10.9085 30.6296 10.9926 30.0889 10.9926C28.6373 10.9926 27.9115 10.285 27.9115 8.86977V4.5722H26.6621V3.22132H27.9115V1.46221L29.6067 0.972335V3.22132H31.3968V4.5722H29.6067V8.37247C29.6067 8.82276 29.687 9.1444 29.8478 9.33738C30.0085 9.53036 30.2764 9.62686 30.6515 9.62686C30.9389 9.62686 31.1873 9.54274 31.3968 9.37449V10.7402Z" transform="translate(12 63.4834) rotate(-90)" fill="white"/>
  <path d="M36.0877 11C34.9332 11 34.0101 10.6462 33.3185 9.9386C32.6316 9.22605 32.2882 8.2834 32.2882 7.11066C32.2882 5.83401 32.6462 4.83693 33.3623 4.11943C34.0832 3.40193 35.0526 3.04318 36.2703 3.04318C37.4394 3.04318 38.3503 3.39204 39.003 4.08974C39.6558 4.78745 39.9821 5.75484 39.9821 6.9919C39.9821 8.20423 39.629 9.17656 38.9227 9.90891C38.2212 10.6363 37.2762 11 36.0877 11ZM36.1681 4.41633C35.5056 4.41633 34.9819 4.65137 34.5971 5.12146C34.2123 5.59154 34.0199 6.23977 34.0199 7.06613C34.0199 7.8628 34.2147 8.49123 34.6044 8.95142C34.9941 9.40666 35.5153 9.63428 36.1681 9.63428C36.8354 9.63428 37.3469 9.40913 37.7025 8.95884C38.0629 8.50855 38.2432 7.86775 38.2432 7.03644C38.2432 6.20018 38.0629 5.55443 37.7025 5.09919C37.3469 4.64395 36.8354 4.41633 36.1681 4.41633Z" transform="translate(12 63.4834) rotate(-90)" fill="white"/>
  <path d="M41.2462 10.5843V8.98853C41.8794 9.47841 42.5784 9.72335 43.3432 9.72335C44.3661 9.72335 44.8776 9.41655 44.8776 8.80297C44.8776 8.62978 44.8338 8.48381 44.7461 8.36505C44.6584 8.24134 44.5391 8.13248 44.3881 8.03846C44.2419 7.94444 44.0666 7.86032 43.862 7.7861C43.6623 7.71188 43.4382 7.62776 43.1898 7.53374C42.8829 7.41003 42.6052 7.2789 42.3568 7.14035C42.1133 7.0018 41.9087 6.84593 41.743 6.67274C41.5823 6.4946 41.4605 6.2942 41.3777 6.07152C41.2949 5.84885 41.2535 5.58907 41.2535 5.29217C41.2535 4.926 41.3387 4.60436 41.5092 4.32726C41.6797 4.04521 41.9087 3.81017 42.1961 3.62213C42.4835 3.42915 42.8098 3.28565 43.1752 3.19163C43.5405 3.09267 43.918 3.04318 44.3077 3.04318C44.9994 3.04318 45.618 3.14957 46.1636 3.36235V4.8691C45.6375 4.50292 45.0335 4.31984 44.3515 4.31984C44.1372 4.31984 43.9424 4.34211 43.767 4.38664C43.5965 4.43117 43.4504 4.49303 43.3286 4.5722C43.2068 4.65137 43.1118 4.74786 43.0436 4.86167C42.9754 4.97054 42.9413 5.09177 42.9413 5.22537C42.9413 5.38866 42.9754 5.52722 43.0436 5.64103C43.1118 5.75484 43.2117 5.85628 43.3432 5.94534C43.4796 6.02946 43.6404 6.10864 43.8255 6.18286C44.0154 6.25214 44.2322 6.32883 44.4757 6.41296C44.7972 6.54656 45.0846 6.68264 45.3379 6.82119C45.5961 6.95974 45.8153 7.11808 45.9955 7.29622C46.1758 7.46941 46.3146 7.67229 46.412 7.90486C46.5094 8.13248 46.5582 8.40463 46.5582 8.72132C46.5582 9.10729 46.4705 9.44377 46.2951 9.73077C46.1197 10.0178 45.8859 10.2553 45.5937 10.4433C45.3014 10.6314 44.9629 10.7699 44.578 10.859C44.1981 10.953 43.7962 11 43.3724 11C42.5541 11 41.8453 10.8614 41.2462 10.5843Z" transform="translate(12 63.4834) rotate(-90)" fill="white"/>
  <path d="M51.4902 11C50.3357 11 49.4126 10.6462 48.7209 9.9386C48.0341 9.22605 47.6907 8.2834 47.6907 7.11066C47.6907 5.83401 48.0487 4.83693 48.7648 4.11943C49.4857 3.40193 50.455 3.04318 51.6728 3.04318C52.8419 3.04318 53.7528 3.39204 54.4055 4.08974C55.0583 4.78745 55.3846 5.75484 55.3846 6.9919C55.3846 8.20423 55.0315 9.17656 54.3251 9.90891C53.6237 10.6363 52.6787 11 51.4902 11ZM51.5705 4.41633C50.9081 4.41633 50.3844 4.65137 49.9996 5.12146C49.6148 5.59154 49.4224 6.23977 49.4224 7.06613C49.4224 7.8628 49.6172 8.49123 50.0069 8.95142C50.3966 9.40666 50.9178 9.63428 51.5705 9.63428C52.2379 9.63428 52.7493 9.40913 53.1049 8.95884C53.4654 8.50855 53.6456 7.86775 53.6456 7.03644C53.6456 6.20018 53.4654 5.55443 53.1049 5.09919C52.7493 4.64395 52.2379 4.41633 51.5705 4.41633Z" transform="translate(12 63.4834) rotate(-90)" fill="white"/>
</svg>
